<?xml version="1.0" standalone="no"?>
<!DOCTYPE svg PUBLIC "-//W3C//DTD SVG 20010904//EN"
 "http://www.w3.org/TR/2001/REC-SVG-20010904/DTD/svg10.dtd">
<svg version="1.0" xmlns="http://www.w3.org/2000/svg"
 width="1920.000000pt" height="1080.000000pt" viewBox="0 0 1920.000000 1080.000000"
 preserveAspectRatio="xMidYMid meet">

<g transform="translate(0.000000,1080.000000) scale(0.100000,-0.100000)"
fill="#000000" stroke="none">
<path d="M0 6353 c0 -2447 4 -4443 8 -4437 15 23 215 239 462 499 139 146 303
310 260 260 -19 -22 -37 -42 -40 -45 -3 -3 -73 -79 -155 -170 -140 -154 -429
-464 -502 -538 l-33 -33 0 -944 0 -945 9600 0 9600 0 0 5400 0 5400 -9600 0
-9600 0 0 -4447z m4860 3657 c11 -190 25 -390 30 -445 19 -207 23 -374 10
-390 -7 -8 -16 -15 -20 -15 -4 0 -13 42 -19 93 -7 50 -17 110 -23 132 l-11 40
-19 -44 c-10 -25 -23 -65 -28 -90 -19 -85 -20 -91 -30 -91 -14 0 -12 132 5
311 21 226 54 628 60 754 3 61 9 130 13 155 l7 45 2 -55 c2 -30 12 -210 23
-400z m1274 394 c31 -30 9 -84 -34 -84 -24 0 -50 26 -50 50 0 24 26 50 50 50
10 0 26 -7 34 -16z m-5100 -120 c31 -30 9 -84 -34 -84 -24 0 -50 26 -50 50 0
24 26 50 50 50 10 0 26 -7 34 -16z m15760 0 c31 -30 9 -84 -34 -84 -24 0 -50
26 -50 50 0 10 7 26 16 34 8 9 24 16 34 16 10 0 26 -7 34 -16z m-7304 -129 c0
-8 -7 -15 -15 -15 -8 0 -15 7 -15 15 0 8 7 15 15 15 8 0 15 -7 15 -15z m-5860
-30 c0 -8 -7 -15 -15 -15 -8 0 -15 7 -15 15 0 8 7 15 15 15 8 0 15 -7 15 -15z
m3250 -134 c25 -48 -6 -111 -55 -111 -32 0 -65 33 -65 65 0 56 95 92 120 46z
m-630 -166 c0 -8 -7 -15 -15 -15 -8 0 -15 7 -15 15 0 8 7 15 15 15 8 0 15 -7
15 -15z m-1975 -339 c14 -10 20 -30 23 -81 5 -77 19 -90 58 -54 20 18 28 21
42 13 14 -9 17 -26 17 -85 0 -41 -4 -97 -8 -125 l-8 -51 73 13 c124 20 258 25
258 9 0 -9 -22 -15 -77 -20 -123 -10 -255 -24 -257 -27 -1 -2 -9 -34 -19 -73
-18 -72 -78 -175 -102 -175 -14 0 -20 20 -30 108 -7 49 -33 92 -57 92 -4 0
-11 0 -14 0 -7 0 -16 -100 -18 -182 -1 -32 -5 -38 -22 -38 -12 0 -41 -9 -65
-19 -25 -11 -103 -36 -174 -55 -158 -44 -251 -79 -295 -111 -42 -31 -95 -105
-116 -164 -10 -25 -22 -52 -27 -59 -14 -18 1 -28 16 -11 15 18 35 31 156 98
51 29 123 77 159 107 86 71 186 119 304 146 l94 21 44 -32 c45 -32 45 -32 50
-10 7 29 71 42 282 59 81 7 155 13 165 14 9 0 19 -6 21 -15 2 -14 -17 -17
-140 -23 -79 -4 -174 -13 -211 -20 -37 -7 -70 -9 -73 -4 -3 4 -9 8 -15 8 -16
0 -10 -44 11 -75 11 -16 25 -47 30 -67 12 -43 14 -43 90 -23 30 8 61 15 68 15
23 0 12 -16 -23 -33 -29 -14 -35 -22 -35 -47 0 -39 17 -45 87 -34 55 9 56 10
85 67 l30 57 59 0 59 0 0 -70 0 -69 -32 -5 c-18 -3 -89 -8 -158 -11 -504 -23
-1052 -220 -1470 -528 -321 -236 -606 -532 -811 -842 -69 -103 -189 -301 -224
-368 -11 -20 -30 -49 -43 -62 -13 -14 -39 -59 -57 -99 -22 -48 -41 -77 -54
-81 -24 -7 -46 -41 -32 -49 5 -4 16 -3 24 0 23 9 -13 -61 -37 -72 -21 -10 -29
-23 -43 -69 -7 -25 -16 -32 -58 -42 -27 -7 -51 -11 -53 -9 -2 3 8 39 22 81 30
89 33 141 9 167 -25 28 -48 22 -86 -22 -25 -29 -33 -47 -30 -67 2 -16 -14
-102 -37 -193 -22 -91 -44 -195 -47 -232 -6 -65 -5 -68 16 -68 11 0 30 -9 40
-19 23 -23 25 -20 36 59 15 102 23 119 60 126 19 3 33 10 30 14 -3 5 -14 6
-24 3 -27 -7 -31 6 -18 60 8 39 14 47 33 47 12 0 25 8 29 18 7 16 8 15 15 -3
7 -19 7 -19 14 3 10 31 19 27 33 -15 9 -30 7 -55 -13 -147 -13 -61 -26 -132
-29 -157 -5 -38 -14 -54 -60 -99 -62 -61 -87 -63 -78 -6 4 24 2 36 -6 36 -6 0
-12 -8 -12 -17 -1 -17 -2 -17 -6 0 -2 9 -11 17 -18 17 -7 0 -15 5 -17 12 -7
20 -35 -14 -31 -37 3 -20 3 -20 -5 0 -6 13 -19 20 -37 20 -22 0 -37 10 -63 45
-19 25 -42 48 -51 53 -10 4 -6 5 9 2 56 -14 55 -14 52 49 l-4 59 37 -6 c31 -5
36 -3 33 11 -3 12 -12 16 -31 14 -36 -4 -35 0 13 197 44 180 53 203 75 195 18
-7 20 7 3 24 -9 9 -8 16 6 30 18 20 16 29 -21 96 -12 23 -14 38 -6 73 8 33 7
43 -2 43 -20 0 -168 70 -162 77 4 3 30 -4 59 -15 102 -40 134 -45 189 -27 35
12 54 25 64 45 36 71 -2 194 -76 245 -22 16 -52 42 -67 59 -15 17 -46 37 -69
44 -144 43 -180 218 -61 293 26 16 45 19 91 16 71 -4 105 -28 131 -91 20 -46
20 -47 1 -102 -16 -48 -17 -57 -4 -65 65 -41 159 70 159 189 0 70 90 256 166
342 31 36 62 78 69 95 12 29 30 174 19 148 -9 -20 -28 -15 -54 12 -18 19 -22
32 -17 59 4 26 1 38 -13 51 -24 22 -34 63 -19 81 30 36 79 -3 79 -63 0 -23 -5
-33 -16 -33 -13 0 -13 -4 4 -27 10 -16 22 -37 26 -48 6 -17 10 -13 27 25 23
50 56 90 75 90 18 0 34 -32 34 -68 0 -17 -17 -64 -38 -106 -21 -42 -35 -76
-31 -76 4 0 33 29 66 63 46 50 69 86 102 163 24 54 58 133 76 174 18 41 40 98
49 125 12 37 32 66 74 107 127 124 148 147 177 194 32 52 63 66 92 43 38 -32
-10 -172 -74 -214 -13 -9 -46 -50 -73 -91 -59 -91 -134 -186 -189 -239 -68
-66 -48 -108 40 -85 102 28 147 56 186 117 20 32 71 92 112 133 163 161 201
222 201 324 0 61 15 119 35 136 21 18 64 4 77 -25 17 -37 -12 -142 -56 -202
-19 -27 -46 -71 -58 -99 -13 -27 -43 -81 -66 -121 -69 -117 -54 -111 63 27 48
56 90 95 189 175 103 83 156 137 182 187 25 48 69 104 143 181 65 67 66 67
192 107 70 22 132 40 138 40 7 0 11 -20 11 -50 0 -27 5 -50 10 -50 13 0 30 43
30 75 0 18 8 26 33 34 86 29 144 113 157 229 8 71 20 88 113 158 62 46 91 53
122 30z m1102 -28 c46 -51 53 -89 27 -143 -20 -43 -78 -68 -125 -55 -94 27
-118 140 -41 200 36 29 112 27 139 -2z m8647 -214 c31 -30 9 -84 -34 -84 -24
0 -50 26 -50 50 0 24 26 50 50 50 10 0 26 -7 34 -16z m-5394 -27 c0 -2 -10
-12 -22 -23 l-23 -19 19 23 c18 21 26 27 26 19z m-4983 -22 c40 -28 37 -89 -6
-122 -9 -7 -33 -13 -53 -13 -44 0 -68 27 -68 76 0 59 76 95 127 59z m1477 -53
c41 -6 47 -9 34 -20 -12 -9 -37 -10 -109 -2 -52 5 -100 10 -106 10 -7 0 -13 5
-13 10 0 11 116 12 194 2z m200 -6 c71 -30 97 -107 56 -173 -53 -88 -189 -78
-221 16 -39 115 53 204 165 157z m3226 -9 c0 -2 -10 -12 -22 -23 l-23 -19 19
23 c18 21 26 27 26 19z m-2983 -48 c142 -31 406 -110 457 -136 18 -9 25 -18
19 -24 -7 -7 -34 -1 -77 15 -93 35 -325 101 -426 120 -95 19 -140 34 -140 47
0 14 19 11 167 -22z m2887 -66 c-32 -38 -61 -70 -64 -73 -3 -3 -30 -34 -60
-70 -30 -36 -74 -85 -99 -110 l-44 -45 49 60 c27 33 51 62 54 65 5 4 170 197
195 227 6 7 14 12 19 13 5 0 -18 -30 -50 -67z m8256 -58 c0 -8 -7 -15 -15 -15
-8 0 -15 7 -15 15 0 8 7 15 15 15 8 0 15 -7 15 -15z m-12056 -90 c6 -16 -26
-38 -50 -33 -13 3 -12 6 1 26 18 25 40 29 49 7z m-2347 -37 c-3 -8 -6 -5 -6 6
-1 11 2 17 5 13 3 -3 4 -12 1 -19z m993 -2 c0 -8 -5 -18 -11 -22 -14 -8 -33
11 -25 25 10 16 36 13 36 -3z m2118 -2 c121 -25 305 -80 457 -136 274 -102
764 -372 733 -404 -4 -3 -51 23 -105 57 -300 191 -660 348 -958 419 -105 24
-290 50 -365 50 -90 0 -107 14 -25 21 130 10 186 9 263 -7z m-356 -34 c19 0
28 -5 28 -16 0 -13 -12 -14 -82 -9 -105 8 -128 13 -128 27 0 8 23 9 77 4 42
-3 89 -6 105 -6z m1338 -4 c31 -39 -26 -98 -64 -66 -19 15 -21 66 -3 73 24 10
55 7 67 -7z m-4036 -121 c21 -60 46 -119 57 -131 23 -25 25 -52 3 -61 -19 -7
-34 13 -34 45 0 12 -16 71 -35 131 -31 96 -42 143 -31 130 2 -2 20 -53 40
-114z m761 105 c3 -5 1 -10 -4 -10 -6 0 -11 5 -11 10 0 6 2 10 4 10 3 0 8 -4
11 -10z m1760 -50 c3 -5 1 -10 -4 -10 -6 0 -11 5 -11 10 0 6 2 10 4 10 3 0 8
-4 11 -10z m-2894 -23 c67 -44 88 -136 48 -206 -31 -55 -65 -75 -134 -79 -55
-4 -64 -1 -93 23 -93 78 -84 205 18 264 48 28 117 28 161 -2z m559 -65 c0 -13
-12 -22 -22 -16 -10 6 -1 24 13 24 5 0 9 -4 9 -8z m2618 -16 c28 0 52 -3 52
-8 0 -4 24 -8 53 -8 66 -1 273 -42 352 -70 33 -12 73 -22 88 -21 33 0 225 -66
302 -105 46 -24 53 -31 50 -53 -2 -18 -8 -25 -20 -24 -12 1 -14 -2 -6 -10 32
-32 -4 -71 -42 -47 -12 7 -22 9 -24 4 -12 -34 -20 -35 -84 -13 -35 12 -67 24
-71 28 -10 9 27 76 40 74 7 -2 12 4 12 12 0 9 -9 15 -23 15 -17 0 -34 15 -62
55 -20 30 -44 55 -52 55 -13 0 -13 -4 2 -26 l17 -27 -31 6 c-27 6 -32 3 -37
-19 -8 -32 1 -41 21 -20 23 22 49 20 80 -7 25 -21 26 -25 16 -65 -11 -39 -28
-52 -45 -35 -3 4 -12 8 -19 10 -7 1 -50 13 -96 27 -187 57 -419 96 -653 112
l-98 7 0 43 c0 25 5 44 13 47 9 3 9 8 1 18 -6 8 -11 25 -12 38 l-1 24 112 -9
c62 -5 136 -8 165 -8z m-4388 -71 c0 -8 -7 -15 -15 -15 -8 0 -15 7 -15 15 0 8
7 15 15 15 8 0 15 -7 15 -15z m6180 -137 c0 -20 -279 -342 -305 -352 -21 -8
-19 -24 4 -31 13 -4 35 4 60 20 52 32 69 32 122 -6 24 -17 63 -42 87 -57 42
-27 55 -52 26 -52 -22 0 -44 14 -89 54 -44 41 -63 44 -95 18 -20 -16 -21 -21
-9 -40 8 -12 17 -22 21 -22 4 0 28 -20 55 -45 54 -51 82 -62 112 -45 27 14 36
-5 21 -45 -6 -15 -9 -30 -6 -32 2 -3 32 -7 65 -10 34 -3 61 -9 61 -13 0 -11
121 -100 136 -100 6 0 56 48 110 107 212 230 222 235 53 26 -135 -166 -129
-150 -77 -204 64 -66 211 -229 244 -269 21 -25 9 -18 -41 25 -38 33 -89 79
-113 103 -25 23 -47 42 -49 42 -6 0 26 -55 117 -205 50 -81 84 -152 107 -219
18 -54 44 -118 58 -141 32 -55 99 -113 144 -125 96 -24 95 -24 87 -4 -5 10
-10 36 -13 56 -7 44 9 68 44 68 20 0 29 -10 50 -57 26 -56 27 -57 36 -30 12
38 57 39 57 1 0 -19 -7 -28 -28 -36 l-28 -11 32 -91 c17 -50 48 -134 68 -186
86 -220 131 -384 157 -558 l12 -84 56 6 c31 3 57 5 59 6 1 0 2 11 2 25 0 21
-5 25 -32 26 l-33 1 28 10 c18 6 27 17 27 31 0 34 -25 169 -59 316 -34 148
-36 161 -21 161 17 0 87 -290 111 -467 14 -101 10 -97 84 -95 34 1 37 0 15 -7
-14 -5 -37 -9 -52 -10 -32 -1 -39 -10 -31 -39 3 -15 13 -22 29 -22 30 0 31
-18 2 -22 -35 -5 -37 -45 -3 -58 15 -6 31 -8 36 -4 5 3 15 2 22 -3 7 -5 -2
-10 -27 -13 -33 -4 -41 -10 -47 -33 -7 -25 -5 -28 22 -34 34 -7 38 -20 7 -25
-18 -2 -23 -10 -24 -35 -2 -43 12 -47 145 -39 72 5 103 4 96 -3 -6 -6 -62 -12
-125 -13 -114 -3 -114 -3 -114 -27 0 -27 -7 -25 139 -36 50 -4 92 -9 94 -11 2
-2 -50 -4 -117 -4 l-122 0 0 -30 c0 -28 2 -30 43 -31 23 -1 56 -5 72 -9 22 -6
12 -8 -43 -9 l-73 -1 3 -27 c3 -27 6 -28 73 -34 l70 -5 -72 -2 -73 -2 0 -29
c0 -30 18 -39 94 -43 17 -1 2 -4 -34 -7 -64 -6 -65 -6 -65 -36 0 -29 2 -30 65
-41 l65 -12 -67 -1 c-52 -1 -68 -4 -68 -15 0 -8 -2 -21 -5 -29 -4 -10 9 -18
47 -29 l53 -15 -51 3 c-56 4 -64 -4 -64 -68 0 -28 -15 -38 -22 -17 -2 7 -26
12 -53 13 -49 1 -50 0 -51 -29 -1 -16 -4 -37 -7 -45 -16 -45 -15 -62 4 -67 10
-3 17 -9 14 -13 -3 -5 0 -12 6 -16 8 -4 7 -9 -2 -15 -20 -13 -29 -11 -29 6 0
8 -4 15 -10 15 -5 0 -10 -14 -10 -31 0 -22 5 -32 20 -36 26 -7 26 -33 1 -33
-14 0 -23 -11 -32 -37 -6 -21 -15 -42 -19 -48 -4 -5 -11 -30 -15 -55 -11 -73
-33 -144 -70 -225 -40 -85 -41 -94 -19 -136 l15 -30 30 45 c17 25 40 48 52 52
l22 7 -23 8 c-12 5 -22 14 -22 21 0 23 29 55 55 62 38 10 76 -13 143 -86 57
-62 62 -71 62 -113 0 -56 -18 -92 -64 -133 -78 -68 -170 -60 -214 19 -21 36
-32 37 -32 3 0 -40 -65 -100 -118 -109 -56 -9 -62 -28 -23 -65 17 -17 31 -39
31 -50 0 -27 -6 -25 -40 9 -31 30 -66 41 -135 41 -38 0 -44 -3 -58 -32 -8 -18
-22 -61 -31 -94 -35 -137 -7 -155 37 -23 31 91 42 109 64 109 11 0 13 -8 8
-33 -8 -38 -72 -172 -114 -239 -28 -44 -29 -48 -16 -85 8 -21 14 -50 15 -65 0
-31 -43 -86 -79 -99 -63 -25 -161 26 -161 83 0 82 -68 -38 -100 -177 -25 -109
-68 -245 -82 -262 -6 -7 -65 -39 -132 -72 -90 -45 -134 -72 -170 -110 -28 -28
-47 -54 -43 -57 4 -4 17 2 30 13 12 11 40 27 61 34 24 8 46 25 55 42 11 18 45
41 98 68 88 43 187 135 199 184 7 29 19 32 28 9 12 -31 5 -44 -57 -119 -46
-54 -70 -95 -87 -143 -36 -105 -73 -171 -145 -262 -37 -46 -75 -100 -85 -120
-10 -20 -34 -54 -52 -76 -18 -22 -55 -74 -82 -115 -27 -41 -67 -101 -89 -134
-202 -302 -216 -326 -282 -472 -50 -110 -66 -133 -95 -133 -30 0 -37 31 -28
115 8 81 27 144 64 218 13 27 24 51 24 54 0 2 -58 -55 -128 -128 l-128 -133
-45 13 c-88 24 -172 -20 -252 -132 -26 -36 -68 -83 -95 -103 -81 -65 -222
-207 -262 -265 -44 -63 -106 -122 -123 -116 -7 2 -12 20 -11 39 1 26 18 60 63
125 48 71 141 254 141 279 0 12 -29 0 -86 -36 -74 -46 -105 -56 -134 -40 -17
9 -20 19 -18 48 3 38 9 44 158 155 52 39 89 99 90 145 0 25 -3 25 -106 -4 -73
-20 -101 -47 -140 -132 -30 -66 -36 -74 -49 -61 -8 8 -22 50 -30 94 -9 44 -18
85 -20 92 -3 9 -22 7 -72 -7 -37 -11 -107 -23 -156 -28 -94 -10 -130 -28 -176
-84 -23 -28 -26 -48 -47 -277 -31 -349 -55 -644 -63 -801 l-7 -135 -7 100 c-4
55 -16 206 -27 335 -11 129 -26 321 -35 425 -26 320 -42 425 -66 425 -5 0 -27
-9 -48 -20 -21 -10 -41 -17 -43 -14 -3 2 -1 30 4 61 13 83 6 99 -55 128 -52
25 -66 41 -114 135 -26 52 -29 88 -8 96 24 10 18 22 -22 43 -21 10 -47 28 -57
40 -23 25 -36 27 -36 4 0 -9 18 -34 41 -55 71 -68 44 -64 -151 22 -89 39 -97
45 -113 83 -18 43 -95 139 -82 102 4 -11 10 -30 12 -43 5 -21 3 -22 -33 -17
-40 5 -54 18 -54 51 0 27 -7 33 -31 27 -18 -5 -20 -11 -14 -42 4 -19 18 -45
31 -58 13 -12 24 -24 24 -27 0 -3 -18 -15 -39 -26 -46 -23 -53 -41 -33 -92 8
-23 11 -49 7 -65 -7 -32 -42 -73 -61 -73 -7 0 -17 -13 -22 -29 -6 -16 -27 -42
-48 -57 -62 -47 -89 -79 -147 -173 -49 -79 -55 -93 -50 -129 10 -75 -52 -151
-131 -159 -114 -11 -196 116 -133 207 42 62 121 86 181 55 15 -8 30 -15 32
-15 2 0 4 20 4 45 0 60 19 104 69 158 38 41 52 79 33 91 -5 3 -36 -18 -71 -46
-42 -35 -65 -48 -72 -41 -16 16 -32 152 -24 207 7 55 31 106 72 152 30 34 115
94 132 94 6 0 11 5 11 10 0 6 -6 10 -13 10 -9 0 -12 19 -12 63 0 82 -35 155
-85 179 -459 218 -691 375 -1055 711 -32 30 -85 47 -85 28 0 -31 253 -278 416
-406 163 -129 469 -307 630 -366 65 -24 124 -72 124 -102 0 -17 -6 -18 -67
-12 -96 9 -150 28 -306 108 -243 124 -466 281 -660 467 -82 78 -125 125 -264
289 l-22 26 -42 -41 -41 -42 30 -43 c16 -24 65 -84 107 -134 247 -286 568
-533 973 -747 124 -66 134 -81 80 -121 -35 -26 -46 -16 -23 19 20 31 24 28
-86 84 -225 115 -532 322 -685 461 -170 155 -323 317 -401 424 l-21 30 -29
-30 c-15 -17 -53 -59 -83 -95 -30 -36 -78 -90 -106 -120 -28 -30 -93 -102
-144 -160 -51 -58 -121 -134 -154 -170 -34 -36 -102 -110 -151 -165 -50 -55
-122 -133 -160 -175 -39 -41 -90 -97 -115 -124 -127 -141 -519 -542 -488 -501
15 21 329 385 361 420 11 11 114 128 230 260 116 132 326 368 466 525 140 157
268 301 285 321 17 21 51 61 76 89 74 87 76 91 55 106 -24 18 -44 18 -65 -1
-16 -14 -21 -12 -60 20 -24 20 -48 34 -54 32 -6 -2 -28 -10 -48 -18 -21 -7
-38 -16 -38 -20 0 -3 13 -24 28 -45 44 -61 45 -64 25 -64 -16 0 -112 125 -102
133 2 2 25 11 50 20 25 10 54 24 65 31 18 14 18 16 -12 53 -35 43 -42 60 -54
123 -5 25 -12 53 -15 62 -6 14 -2 18 14 18 28 0 81 39 81 59 0 12 -4 11 -18
-5 -11 -15 -27 -21 -47 -20 -16 1 -36 -3 -43 -8 -19 -13 -28 2 -14 24 14 23 0
72 -20 68 -9 -2 -14 13 -16 45 -3 53 10 61 29 18 9 -19 29 -36 63 -52 28 -12
54 -24 59 -27 4 -2 7 4 7 13 0 10 11 26 25 37 32 25 23 40 -16 26 -22 -8 -34
-7 -42 1 -6 6 -23 11 -38 11 -29 0 -47 26 -29 44 15 15 12 42 -6 57 -13 11
-17 10 -25 -4 -16 -28 -27 -19 -43 37 -18 62 -20 90 -6 81 13 -8 13 41 -1 107
-6 29 -34 118 -61 198 -28 80 -54 159 -58 175 -13 47 -40 172 -40 185 0 18 82
4 97 -17 8 -10 13 -12 13 -5 0 13 52 17 63 5 10 -10 -13 -33 -33 -33 -10 0
-38 -17 -62 -37 -23 -20 -34 -33 -23 -28 69 27 90 10 56 -46 -27 -43 -27 -76
-1 -84 23 -7 62 3 72 19 5 7 8 4 8 -7 0 -10 5 -15 10 -12 6 3 13 -1 17 -11 4
-10 0 -20 -10 -26 -10 -5 -17 -13 -17 -18 0 -15 26 -12 40 5 7 8 20 15 30 15
23 0 34 -41 15 -56 -22 -17 -19 -37 5 -29 14 5 22 1 26 -12 28 -79 186 -368
296 -538 193 -299 490 -611 768 -806 321 -225 745 -407 1130 -485 160 -32 400
-63 493 -64 35 0 37 1 37 34 l0 33 -92 7 c-307 22 -688 104 -903 195 -254 107
-354 158 -520 264 -356 229 -643 520 -868 883 -41 65 -80 136 -86 156 -7 21
-17 40 -22 43 -5 4 -9 15 -9 27 0 16 4 19 24 14 14 -3 27 -2 30 3 9 14 -23 22
-44 11 -16 -9 -22 -5 -35 19 -19 38 -19 57 1 65 27 10 29 8 84 -76 149 -232
206 -315 300 -433 102 -128 314 -348 381 -395 19 -14 -32 43 -113 125 -372
381 -552 665 -673 1061 -15 49 -29 97 -31 108 -2 11 -9 23 -15 27 -6 4 -8 12
-5 18 4 6 1 11 -6 12 -10 0 -10 2 0 6 6 2 12 9 12 14 0 6 -5 7 -11 3 -11 -7
-29 12 -29 31 0 6 4 3 10 -5 20 -31 17 0 -10 108 -26 105 -54 287 -66 440 l-5
62 41 0 c46 0 58 -27 13 -32 -44 -5 -40 -28 5 -28 47 0 59 -12 68 -68 7 -45
24 -58 24 -18 0 13 14 38 30 56 32 35 39 56 15 46 -9 -3 -19 3 -26 17 -11 20
-13 20 -19 3 -5 -16 -8 -16 -24 9 l-18 28 23 -6 c13 -4 34 -7 47 -7 13 0 22
-6 22 -15 0 -19 9 -19 31 1 12 11 25 14 36 9 10 -4 34 -7 54 -6 37 2 70 -21
49 -34 -7 -4 -7 -12 0 -25 9 -16 7 -18 -18 -15 -15 2 -33 4 -39 4 -7 1 -13 8
-13 16 0 8 -4 15 -10 15 -12 0 -13 -21 -1 -52 10 -26 56 -78 69 -78 5 0 9 -7
9 -15 0 -23 -27 -18 -37 8 -6 16 -9 17 -9 5 -1 -9 -6 -20 -13 -24 -8 -5 -9 2
-5 24 7 36 8 36 -27 22 -23 -8 -26 -7 -26 10 0 26 -16 25 -31 -1 -8 -16 -8
-28 2 -48 23 -49 22 -64 -5 -57 -14 3 -28 1 -35 -8 -13 -15 -5 -27 14 -20 7 3
15 -2 18 -10 3 -8 21 -22 38 -32 31 -15 33 -15 45 1 17 23 38 10 22 -14 -6
-10 -8 -26 -5 -34 5 -13 11 -14 36 -6 17 6 33 20 36 30 9 26 21 21 46 -18 l21
-32 -28 -26 -27 -25 21 -23 c12 -13 40 -78 62 -146 40 -124 145 -351 185 -400
12 -14 34 -48 50 -76 25 -45 92 -146 122 -185 114 -148 207 -249 219 -237 3 3
-28 48 -70 99 -148 180 -162 198 -226 300 -73 116 -92 158 -94 208 -1 20 -13
53 -28 75 -70 105 -176 521 -190 745 l-3 45 45 -4 c25 -1 46 -4 47 -5 1 -1 9
-33 17 -70 14 -66 26 -86 54 -86 11 0 12 17 6 82 -6 67 -4 80 7 76 8 -3 57
-13 109 -22 52 -9 185 -34 295 -56 110 -21 277 -51 370 -65 94 -14 183 -29
200 -34 l30 -7 -73 -77 c-74 -78 -94 -112 -106 -180 l-7 -37 44 43 c24 24 77
63 118 87 41 23 97 56 124 73 l50 30 160 -23 c282 -41 303 -45 309 -50 3 -3
-102 -114 -232 -246 -212 -215 -383 -411 -420 -481 -13 -24 -13 -24 10 -12 42
22 271 181 406 281 73 54 137 96 141 93 5 -2 14 2 21 10 7 8 57 47 112 86 77
55 102 68 109 58 15 -24 41 -148 34 -159 -4 -7 4 -24 18 -38 14 -15 31 -48 38
-73 12 -46 12 -47 -28 -111 -55 -86 -74 -146 -80 -253 l-5 -90 26 51 c22 44
132 162 141 152 1 -2 19 -113 40 -248 20 -135 56 -366 80 -515 47 -288 96
-639 145 -1035 17 -135 32 -249 33 -254 2 -5 8 56 15 135 13 157 35 342 118
1019 29 245 63 524 74 620 11 96 25 208 31 248 l12 73 44 -43 c58 -56 97 -112
116 -168 l16 -45 1 67 c0 88 -13 152 -57 270 l-36 97 30 88 c17 48 38 114 47
146 9 31 21 57 26 57 5 0 40 -22 77 -48 201 -144 552 -391 578 -408 17 -10 47
-31 68 -47 21 -16 40 -27 43 -24 12 12 -147 214 -281 357 -397 424 -366 386
-330 400 16 6 41 7 64 1 49 -11 131 1 228 32 109 35 139 39 154 21 6 -8 53
-39 104 -69 106 -62 150 -97 177 -140 l20 -30 -7 50 c-9 63 -29 103 -100 193
-31 40 -53 72 -48 72 4 0 141 23 303 50 458 78 830 133 837 126 13 -12 -28
-286 -62 -420 -55 -217 -149 -443 -245 -588 -21 -31 -41 -66 -45 -77 -6 -19
-4 -20 25 -10 44 16 82 68 155 209 80 159 119 254 161 405 49 174 66 265 73
395 l6 115 78 3 c69 3 77 1 77 -15 -2 -92 -21 -359 -30 -422 -7 -43 -10 -87
-8 -97 7 -29 29 80 38 190 5 54 14 104 19 110 6 7 13 63 17 124 l7 112 38 0
37 0 -4 -87 c-5 -98 -21 -240 -34 -293 -14 -58 -21 -138 -11 -114 29 68 71
324 71 434 0 71 -8 67 159 73 l114 5 -7 -61 c-3 -33 -6 -86 -6 -118 0 -39 -5
-63 -15 -73 -11 -11 -14 -26 -10 -48 23 -125 -187 -825 -241 -804 -16 6 -17 1
-5 -22 5 -10 5 -27 0 -41 -7 -18 -14 -22 -34 -17 -19 5 -25 2 -25 -9 0 -9 -8
-30 -17 -48 -9 -18 -16 -35 -15 -40 5 -16 -94 -176 -197 -317 -49 -68 -156
-196 -217 -260 -34 -36 -70 -75 -81 -87 -58 -69 -339 -295 -468 -378 -424
-272 -884 -425 -1382 -461 l-93 -7 0 -28 c0 -15 3 -30 8 -32 17 -9 258 15 383
38 447 84 767 210 1134 450 371 242 731 625 967 1030 232 398 357 793 377
1189 5 100 9 131 21 137 8 4 58 20 110 34 88 24 120 38 109 49 -2 2 -53 11
-113 20 -61 9 -112 19 -115 21 -2 3 -6 31 -8 63 -27 418 -124 796 -293 1141
-227 463 -531 831 -928 1125 l-161 120 34 25 c19 13 35 28 35 33 0 4 5 8 11 8
17 0 161 150 156 163 -2 7 -12 11 -21 11 -22 -2 -20 9 5 32 20 18 21 18 34 0
15 -19 15 -19 174 157 44 47 61 57 61 35z m-1880 -63 c47 -3 123 -11 170 -17
102 -13 348 -72 363 -87 20 -20 -2 -23 -57 -7 -95 28 -337 65 -506 78 -145 11
-160 14 -160 31 0 16 6 18 53 13 28 -3 90 -8 137 -11z m1080 0 c0 -9 -7 -18
-15 -21 -20 -8 -19 -33 1 -41 8 -3 25 4 40 18 23 21 26 22 41 6 13 -13 14 -19
3 -31 -10 -14 -10 -16 5 -16 10 0 15 3 12 7 -4 3 2 12 13 20 11 8 20 21 20 29
0 34 31 2 34 -35 1 -14 138 -100 234 -147 28 -14 52 -29 52 -32 -1 -13 -38
-52 -49 -52 -6 0 -11 -4 -11 -10 0 -5 -6 -10 -12 -10 -7 0 -27 -17 -44 -37
l-31 -37 -64 41 c-141 89 -272 160 -341 182 -39 13 -47 28 -26 49 17 17 38 15
38 -3 0 -8 -8 -15 -17 -15 -15 0 -16 -2 -3 -10 10 -6 19 -5 28 4 11 11 11 17
1 34 -12 19 -11 24 9 42 13 12 22 33 22 50 0 27 3 30 30 30 20 0 30 -5 30 -15z
m-1390 -9 c0 -11 -20 -16 -77 -20 -452 -36 -749 -111 -1088 -276 -216 -105
-346 -190 -559 -364 -140 -116 -230 -204 -376 -371 -58 -66 -115 -129 -127
-140 -13 -11 -23 -24 -23 -29 0 -5 -20 -35 -45 -68 -61 -81 -128 -194 -224
-378 -44 -85 -81 -149 -81 -142 0 23 81 217 127 302 53 98 154 254 189 290 13
14 59 70 103 125 267 333 658 641 1049 827 249 118 582 210 877 243 170 18
255 19 255 1z m2472 -90 c-51 -64 -51 -64 -30 -82 117 -106 -5 -290 -144 -218
-98 51 -113 158 -30 222 29 22 45 27 94 27 32 -1 58 2 58 6 0 8 90 109 97 109
3 0 -18 -29 -45 -64z m-2478 -123 c-5 -87 -11 -121 -22 -129 -13 -9 -13 -12 2
-17 10 -4 16 -18 16 -38 0 -30 -2 -31 -35 -27 -20 2 -35 0 -35 -7 0 -5 -70
-20 -163 -33 -89 -13 -209 -36 -267 -52 -58 -16 -113 -29 -123 -30 -18 0 -18
1 1 28 25 36 34 52 29 52 -2 0 -18 -20 -36 -45 -18 -25 -37 -45 -43 -45 -5 0
-39 -13 -75 -30 -35 -16 -70 -30 -77 -30 -16 0 -364 -175 -419 -211 -333 -214
-604 -489 -784 -794 -93 -158 -145 -257 -173 -330 -13 -33 -27 -64 -30 -68 -4
-4 -22 22 -40 58 -31 61 -35 65 -67 65 -46 0 -93 -46 -93 -90 0 -46 49 -90
101 -90 39 0 39 0 39 -39 0 -23 -6 -44 -15 -51 -9 -7 -12 -16 -7 -19 6 -4 0
-49 -14 -110 -26 -117 -54 -319 -54 -392 0 -36 -4 -51 -18 -58 -20 -10 -148
-24 -139 -14 8 8 -31 63 -45 63 -7 0 -9 -15 -5 -40 5 -37 3 -40 -19 -40 -23 0
-24 2 -18 53 10 90 23 137 50 177 25 38 26 40 11 82 -15 43 -15 43 -16 11 -1
-18 -3 -33 -6 -33 -3 0 -26 15 -51 33 l-45 32 5 65 c6 82 71 302 130 444 103
244 255 510 414 720 93 125 369 401 477 479 44 31 123 88 175 127 228 166 498
299 771 379 202 59 480 106 647 109 l73 2 -7 -117z m334 106 c120 -13 133 -17
110 -30 -10 -6 -18 -20 -18 -33 0 -45 59 -192 84 -209 6 -4 30 -12 54 -18 51
-14 59 -24 38 -48 -17 -18 -12 -31 11 -31 8 0 11 4 8 10 -3 5 9 25 28 42 18
18 50 53 70 78 20 25 55 65 78 90 35 39 38 40 18 10 -26 -38 -52 -70 -116
-141 -24 -25 -43 -51 -43 -56 0 -15 25 -23 71 -23 22 0 65 -9 96 -20 71 -25
80 -25 136 0 41 18 117 91 117 112 0 4 4 8 9 8 6 0 9 -9 8 -20 -1 -11 -4 -20
-8 -20 -3 0 -3 -17 0 -37 6 -35 10 -38 36 -36 36 3 45 -10 45 -64 0 -43 13
-57 24 -27 3 9 6 55 6 102 0 118 4 122 77 93 60 -25 172 -90 254 -148 26 -18
50 -33 55 -33 5 0 27 12 48 26 34 23 41 25 62 13 15 -7 24 -21 24 -35 0 -30
16 -39 29 -17 9 16 13 15 43 -16 19 -19 26 -31 16 -28 -27 10 -32 -12 -8 -38
12 -12 18 -25 13 -27 -4 -3 -2 -3 5 -1 8 1 20 3 27 3 15 0 15 31 0 42 -6 5 -3
8 7 8 9 0 23 -6 30 -12 7 -7 36 -31 63 -53 59 -47 266 -250 358 -353 78 -86
191 -235 265 -347 59 -90 129 -222 122 -228 -3 -2 -17 -7 -31 -10 -24 -6 -29
0 -78 95 -113 217 -258 416 -430 593 -143 145 -222 211 -241 200 -6 -3 -10 0
-10 7 0 7 -14 21 -30 30 -37 21 -41 4 -7 -30 49 -50 81 -71 92 -62 8 7 10 1 7
-20 -4 -27 -2 -30 23 -30 24 0 27 -3 21 -27 -5 -23 -4 -25 5 -10 10 17 13 15
42 -19 18 -20 32 -42 33 -48 0 -6 2 -17 2 -25 1 -7 8 -11 17 -8 22 9 154 -152
316 -388 209 -303 340 -621 434 -1055 25 -117 54 -199 55 -158 3 130 -105 541
-223 847 l-36 93 32 -6 c41 -8 56 -29 113 -156 103 -233 181 -510 144 -510 -5
0 -10 -5 -10 -10 0 -6 8 -10 17 -8 14 2 20 -9 30 -57 18 -90 43 -311 43 -386
l0 -66 -67 9 c-38 4 -98 13 -135 19 -67 11 -68 11 -68 42 0 59 -39 271 -70
382 -31 107 -31 111 -14 143 9 17 23 32 30 32 8 0 11 6 8 15 -4 8 -1 22 6 31
10 11 10 18 2 26 -9 9 -17 7 -32 -7 -20 -19 -22 -19 -55 -1 -28 16 -37 17 -50
6 -20 -17 -19 -25 9 -52 13 -13 26 -32 29 -43 2 -11 19 -67 36 -125 34 -111
93 -421 82 -431 -10 -11 -263 38 -272 52 -5 8 -9 32 -9 54 0 52 -25 221 -46
310 -55 236 -115 401 -227 619 -8 16 -6 18 17 14 33 -7 44 8 14 18 -13 4 -27
7 -31 6 -12 -3 -56 50 -63 78 -4 14 -10 27 -14 30 -4 3 -32 39 -61 81 -30 42
-70 98 -89 125 -71 98 -292 304 -448 418 -48 35 -51 39 -35 51 17 13 17 14 1
20 -25 10 -22 27 9 61 l27 29 7 -30 7 -30 1 28 c1 24 4 27 22 22 14 -5 28 0
45 16 30 28 32 65 4 72 -12 3 -20 0 -20 -8 0 -7 -11 -16 -25 -19 -14 -4 -25
-11 -25 -16 0 -6 -7 -10 -15 -10 -8 0 -15 -4 -15 -8 0 -8 -73 -83 -120 -123
l-25 -21 30 -24 c17 -14 86 -69 155 -123 130 -101 322 -293 400 -396 24 -33
64 -84 88 -113 37 -44 42 -55 31 -68 -10 -12 -7 -20 19 -47 17 -18 60 -93 96
-167 121 -253 193 -514 219 -802 4 -39 2 -48 -11 -48 -9 0 -113 16 -231 35
-267 43 -520 72 -713 81 -156 7 -169 12 -127 50 36 31 86 116 103 174 9 29 16
54 16 55 0 0 -26 -24 -57 -55 -61 -58 -214 -141 -304 -164 -42 -11 -54 -10
-150 20 -57 18 -137 42 -177 54 -40 12 -72 25 -70 29 2 5 44 53 94 107 231
249 537 634 519 652 -2 2 -19 -7 -37 -21 -18 -13 -161 -105 -318 -202 -279
-174 -333 -211 -407 -281 -20 -19 -38 -33 -39 -31 -15 15 -57 156 -63 212 -8
67 -6 73 25 135 38 75 64 192 64 282 l0 63 -21 -45 c-42 -94 -139 -230 -164
-230 -17 0 -25 23 -25 76 0 29 -7 54 -20 72 -23 31 -43 123 -34 157 5 21 -11
44 -22 32 -6 -6 31 -460 54 -657 15 -131 22 -162 45 -201 15 -26 27 -51 26
-55 -1 -5 -1 -28 0 -51 2 -84 78 -77 102 9 17 66 18 67 109 99 46 16 85 29 87
29 10 0 -4 -27 -57 -110 -33 -51 -60 -101 -60 -111 0 -9 -7 -22 -16 -30 -28
-23 -43 -64 -55 -152 -17 -111 -6 -142 45 -133 19 4 52 3 73 -2 26 -6 67 -5
119 3 43 7 81 11 83 9 8 -8 -56 -25 -154 -40 -111 -17 -152 -35 -125 -54 22
-14 40 -13 195 15 132 23 383 55 433 55 12 0 22 -5 22 -12 0 -16 -48 -116 -60
-123 -6 -3 -10 -12 -10 -18 1 -21 80 74 88 106 l8 30 125 4 c128 5 128 5 549
-64 30 -4 32 -6 14 -13 -51 -20 -475 -76 -500 -66 -7 3 -46 -1 -86 -9 -40 -8
-113 -21 -163 -29 -57 -10 -99 -23 -115 -36 -40 -33 -57 -37 -220 -54 -306
-33 -382 -44 -396 -58 -9 -9 -21 -78 -34 -203 -27 -247 -57 -493 -76 -625 -8
-58 -16 -116 -17 -130 -1 -14 -5 -29 -9 -35 -3 -5 -9 -32 -13 -58 -4 -26 -14
-55 -22 -63 -10 -9 -13 -24 -9 -39 4 -15 2 -25 -4 -25 -7 0 -9 -8 -5 -20 3
-11 2 -20 -3 -20 -6 0 -8 -9 -5 -20 3 -13 -1 -22 -11 -26 -14 -5 -14 -9 -4
-22 11 -12 10 -16 -1 -20 -11 -4 -11 -6 0 -13 12 -8 11 -11 -2 -22 -19 -15
-32 -48 -17 -44 6 1 13 -4 15 -10 9 -24 -34 -13 -51 12 -10 15 -22 23 -34 19
-9 -2 -6 1 8 8 14 6 27 13 29 14 2 2 -3 10 -12 18 -8 8 -17 12 -21 9 -3 -4 -6
-2 -7 3 -2 28 -11 58 -24 83 -12 24 -12 31 1 49 13 19 12 22 -3 31 -14 8 -18
24 -18 88 0 63 -3 78 -15 78 -10 0 -14 -9 -13 -29 2 -30 -11 -56 -29 -56 -14
0 -27 44 -17 56 10 13 2 44 -12 44 -5 0 -9 17 -9 38 0 21 -5 43 -10 48 -11 11
-18 60 -25 162 -2 35 -9 70 -15 77 -6 7 -8 19 -5 27 3 8 -1 21 -10 28 -9 7
-12 16 -7 19 12 8 -18 244 -32 253 -7 5 -6 8 3 8 9 0 11 6 6 18 -4 9 -7 27 -6
40 0 12 -3 22 -7 22 -5 0 -7 14 -4 30 3 19 0 30 -7 30 -9 0 -10 13 -6 44 7 47
-6 86 -30 86 -8 0 -28 -24 -46 -54 -24 -39 -44 -59 -77 -75 -28 -14 -42 -17
-39 -9 60 136 81 218 56 218 -42 0 -452 52 -516 65 -12 3 -31 21 -44 41 l-22
37 -135 -8 -135 -7 8 24 c4 12 14 49 22 81 14 49 18 55 31 45 13 -11 15 -10 9
5 -9 25 1 41 18 27 7 -6 87 -13 186 -16 136 -4 210 -12 337 -36 l162 -31 25
23 c14 13 25 27 25 30 0 4 -21 13 -47 20 -27 7 -52 16 -56 20 -10 8 98 40 135
40 18 0 35 -11 52 -32 14 -18 29 -29 33 -24 4 4 7 41 5 81 -1 40 2 76 7 79 5
4 22 -17 36 -46 31 -62 51 -86 41 -48 -4 14 -9 81 -13 150 l-6 125 -38 36
c-33 31 -39 42 -39 78 0 48 2 48 87 10 46 -21 60 -23 65 -11 4 9 109 74 114
70 3 -3 23 -208 44 -439 5 -63 10 -320 10 -571 0 -438 3 -494 28 -462 4 5 5
267 2 582 -3 314 -4 572 -2 572 1 0 6 -10 11 -22 4 -12 11 235 14 548 4 313
10 599 14 637 5 60 4 67 -11 61 -20 -7 -19 -13 0 82 19 94 38 134 63 134 29 0
32 11 11 41 -14 18 -17 30 -10 34 8 5 6 13 -6 26 -15 17 -16 19 -1 19 20 0 13
28 -12 48 -15 12 -15 14 2 23 20 12 23 35 5 43 -9 4 -10 8 -2 11 8 4 9 17 4
40 -4 19 -6 35 -3 35 3 0 0 6 -6 14 -6 7 -11 27 -11 42 1 16 -1 52 -4 79 -3
28 -8 89 -12 137 l-6 87 54 -5 c314 -29 490 -74 771 -194 54 -23 129 -59 167
-81 38 -21 74 -39 79 -39 16 0 44 48 38 64 -11 29 -196 117 -406 192 -205 74
-347 111 -491 128 -226 28 -210 23 -210 59 0 18 -2 96 -6 175 l-6 142 57 0
c31 0 100 -5 153 -11z m689 -41 c64 -23 93 -38 93 -49 0 -29 -11 -28 -73 6
-34 18 -83 41 -109 50 -27 10 -48 22 -48 28 0 12 25 6 137 -35z m-429 -21 c2
-9 -1 -17 -7 -17 -6 0 -10 6 -8 13 1 6 -4 11 -11 9 -8 -1 -10 2 -7 8 9 15 29
7 33 -13z m607 -57 c0 -8 -10 -16 -22 -18 -22 -3 -32 16 -16 32 12 11 38 2 38
-14z m170 -76 c39 -20 96 -56 128 -78 33 -23 70 -48 83 -56 29 -18 30 -26 3
-40 -17 -10 -26 -6 -62 27 -36 33 -144 99 -252 154 -17 8 -31 24 -33 37 -3 21
-2 21 30 8 18 -8 65 -31 103 -52z m-4546 -48 c10 -12 8 -13 -8 -9 -12 3 -21 9
-21 14 0 14 16 11 29 -5z m14445 -42 c31 -30 9 -84 -34 -84 -24 0 -50 26 -50
50 0 24 26 50 50 50 10 0 26 -7 34 -16z m-14356 -16 c13 -17 35 -98 27 -106
-10 -11 -26 15 -40 67 -13 50 -8 64 13 39z m12572 -113 c0 -8 -7 -15 -15 -15
-8 0 -15 7 -15 15 0 8 7 15 15 15 8 0 15 -7 15 -15z m-9500 -47 c0 -18 -6 -76
-14 -128 -8 -52 -19 -140 -26 -195 -7 -55 -19 -110 -26 -122 -8 -12 -14 -46
-14 -75 0 -45 -8 -106 -25 -203 -2 -11 -8 -60 -14 -110 -29 -232 -57 -378 -71
-373 -19 7 -152 166 -168 200 -9 21 -20 38 -24 38 -5 0 -8 -1 -8 -3 0 -1 5
-41 10 -87 14 -115 35 -184 77 -253 l35 -58 -23 -107 c-12 -59 -24 -126 -27
-149 -2 -25 -9 -43 -16 -43 -7 0 -81 45 -164 100 -125 82 -498 318 -622 394
-17 10 -33 16 -36 14 -13 -14 209 -292 392 -491 148 -163 214 -240 214 -251 0
-12 -292 -95 -360 -103 -80 -9 -298 86 -375 163 -19 19 -35 31 -35 26 0 -36
39 -123 80 -177 27 -36 44 -65 37 -65 -38 0 -423 -32 -542 -46 -140 -15 -470
-60 -512 -69 -21 -5 -23 -2 -23 44 0 157 71 476 145 651 48 115 135 277 202
377 88 133 85 130 123 103 56 -40 107 -3 78 57 -9 19 -21 28 -36 27 -27 -1
-29 16 -3 23 12 3 17 11 14 19 -3 8 1 14 8 14 7 0 9 3 6 6 -11 12 14 46 29 40
9 -4 18 3 24 19 5 14 15 25 22 25 7 0 18 10 23 23 6 13 17 21 28 19 10 -2 17
3 17 13 0 21 74 100 178 187 66 57 86 69 93 57 5 -8 9 -19 9 -25 0 -17 46 -37
69 -29 36 11 52 46 41 85 -5 18 -15 37 -22 42 -10 6 -9 12 5 23 11 7 25 11 32
9 7 -3 41 15 77 40 40 28 72 43 84 40 22 -5 35 3 50 31 24 46 310 170 514 223
147 39 241 52 428 60 41 2 42 1 42 -30z m-2977 7 c7 -16 -8 -29 -23 -20 -15 9
-12 35 4 35 8 0 16 -7 19 -15z m-278 -235 c11 -17 -5 -32 -21 -19 -8 6 -14 15
-14 20 0 12 27 11 35 -1z m6119 -306 c3 -8 2 -12 -4 -9 -6 3 -10 10 -10 16 0
14 7 11 14 -7z m475 -238 c17 -27 101 -228 101 -241 0 -3 -6 -5 -14 -5 -8 0
-20 17 -26 38 -7 20 -50 119 -96 219 -94 203 -110 257 -34 114 28 -51 59 -108
69 -125z m10821 134 l0 -70 -4560 0 -4560 0 0 70 0 70 4560 0 4560 0 0 -70z
m-11254 24 c8 -20 13 -38 11 -40 -2 -2 -11 14 -20 36 -19 50 -12 53 9 4z m495
-141 c-8 -15 -10 -15 -11 -2 0 17 10 32 18 25 2 -3 -1 -13 -7 -23z m-111 -53
c0 -5 -7 -10 -16 -10 -8 0 -12 5 -9 10 3 6 10 10 16 10 5 0 9 -4 9 -10z m1910
-275 l0 -205 38 25 c20 13 50 40 65 60 15 19 33 35 40 35 6 0 30 19 53 43 23
23 66 63 96 89 29 26 80 72 113 102 l60 56 114 0 114 0 -59 -52 c-32 -29 -80
-73 -106 -98 -27 -25 -70 -64 -96 -87 -26 -22 -76 -69 -112 -102 -36 -34 -68
-61 -72 -61 -8 0 -68 -62 -68 -71 0 -8 380 -389 388 -389 9 0 162 -154 162
-163 0 -4 -48 -7 -106 -7 l-107 0 -58 60 c-32 33 -61 60 -66 60 -4 0 -75 68
-157 150 -82 83 -153 150 -157 150 -4 0 -24 17 -43 38 l-36 37 0 -247 0 -248
-85 0 -85 0 0 515 0 515 85 0 85 0 0 -205z m-8298 178 c34 -31 11 -93 -35 -93
-27 0 -57 28 -57 53 0 48 56 73 92 40z m6682 -108 c-10 -8 -22 -15 -26 -15 -4
0 -31 -11 -60 -24 -79 -35 -88 -37 -88 -22 0 8 8 16 18 19 9 3 49 17 87 31 80
29 97 32 69 11z m66 -29 c0 -2 -7 -7 -16 -10 -8 -3 -12 -2 -9 4 6 10 25 14 25
6z m2730 -67 c24 -5 47 -13 50 -17 3 -4 35 -23 72 -41 37 -19 75 -45 83 -58 9
-13 24 -32 33 -42 48 -50 82 -150 82 -246 0 -92 -34 -200 -75 -240 -11 -11
-29 -31 -40 -45 -24 -30 -99 -80 -119 -80 -8 0 -21 -7 -29 -15 -20 -20 -89
-34 -165 -35 -63 0 -152 17 -162 30 -3 4 -27 17 -53 29 -80 36 -187 166 -187
226 0 8 -6 15 -12 18 -9 2 -13 34 -13 112 0 78 4 110 13 113 6 2 12 9 12 17 0
61 107 190 187 225 26 11 50 24 53 29 17 26 187 39 270 20z m902 -1 c29 -7 55
-15 58 -18 3 -4 28 -18 55 -32 l50 -24 3 -89 3 -89 -24 22 c-13 12 -28 22 -35
22 -6 0 -15 7 -20 16 -24 43 -213 69 -299 40 -133 -44 -201 -189 -160 -343 18
-70 97 -145 171 -163 107 -25 298 3 351 52 20 19 20 19 23 -59 3 -85 -4 -98
-60 -110 -16 -3 -28 -9 -28 -13 0 -12 -118 -30 -192 -30 -83 0 -165 15 -184
35 -9 8 -23 15 -32 15 -9 0 -28 9 -42 20 -14 11 -30 20 -36 20 -7 0 -18 10
-27 23 -8 12 -26 34 -39 48 -99 106 -102 391 -5 494 11 11 30 34 43 51 13 17
50 44 81 59 32 16 61 33 64 37 17 25 196 35 281 16z m3473 2 c22 -5 41 -14 43
-19 2 -6 11 -11 21 -11 16 0 89 -55 119 -90 7 -8 23 -35 34 -60 11 -25 25 -48
30 -51 7 -5 28 -143 28 -191 0 -17 -22 -18 -320 -18 -207 0 -320 -4 -320 -10
0 -5 4 -10 8 -10 4 0 14 -21 21 -47 20 -68 93 -137 162 -153 67 -16 216 -8
294 16 33 10 62 21 65 24 37 39 40 35 40 -48 l0 -80 -47 -18 c-27 -10 -50 -21
-53 -25 -8 -12 -127 -29 -196 -29 -73 0 -168 17 -172 30 -2 6 -10 10 -18 10
-58 0 -189 120 -218 199 -39 110 -35 268 9 365 14 30 28 56 33 58 4 1 21 20
36 41 16 20 33 37 38 37 5 0 26 11 46 25 20 14 44 25 53 25 10 0 19 5 21 10 8
24 169 37 243 20z m837 -2 c29 -7 58 -16 63 -20 6 -5 30 -19 55 -32 l45 -23 3
-88 3 -87 -33 26 c-18 14 -39 31 -47 38 -27 23 -98 41 -176 45 -64 4 -90 1
-131 -15 -128 -51 -191 -191 -152 -338 17 -61 97 -142 159 -161 100 -29 307
-3 360 46 l24 22 3 -78 c3 -85 -4 -98 -60 -110 -16 -3 -28 -9 -28 -13 0 -11
-117 -30 -186 -30 -83 0 -172 16 -190 35 -8 8 -22 15 -30 15 -19 0 -93 49
-121 80 -13 14 -30 42 -40 63 -9 20 -20 37 -24 37 -14 0 -30 66 -36 146 -6 83
18 224 38 224 5 0 15 15 23 33 19 45 89 112 144 137 26 12 50 26 53 31 16 26
195 36 281 17z m1360 1 c29 -6 55 -15 58 -19 3 -4 29 -19 58 -33 l52 -26 0 34
0 35 80 0 80 0 0 -395 0 -395 -85 0 -85 0 0 34 0 35 -47 -27 c-27 -14 -50 -29
-53 -32 -9 -12 -98 -30 -148 -30 -56 0 -162 19 -162 30 0 4 -19 15 -42 25 -85
37 -188 172 -188 247 0 9 -5 18 -10 20 -7 2 -11 39 -11 93 0 54 4 91 11 93 5
2 10 12 10 23 0 35 53 134 94 175 23 23 61 52 86 64 25 13 47 26 50 30 16 25
169 36 252 19z m-5192 -18 c0 -13 61 -111 82 -132 9 -10 24 -33 33 -52 9 -19
24 -43 33 -53 10 -11 27 -34 37 -51 11 -18 22 -33 26 -33 10 0 59 51 59 62 0
10 48 85 71 111 9 10 27 38 39 62 13 25 27 45 32 45 5 0 14 11 20 25 11 24 14
25 110 25 l98 0 0 -395 0 -395 -85 0 -85 0 -2 287 -3 287 -24 -47 c-13 -26
-28 -47 -32 -47 -5 0 -18 -18 -29 -40 -12 -23 -29 -49 -38 -59 -9 -9 -26 -34
-36 -55 l-20 -37 -74 3 -74 3 -25 45 c-14 25 -34 53 -44 63 -10 10 -19 22 -19
28 0 9 -48 88 -60 99 -4 3 -14 16 -23 30 -16 23 -17 10 -17 -268 l0 -292 -85
0 -85 0 0 395 0 395 110 0 c61 0 110 -4 110 -9z m961 -273 c0 -223 3 -279 12
-264 7 11 20 28 30 38 10 11 34 46 53 79 19 32 39 59 44 59 6 0 10 6 10 14 0
7 6 19 13 25 8 6 24 31 37 56 13 25 27 45 31 45 4 0 22 24 39 53 18 28 37 55
42 58 8 5 35 48 60 97 10 20 18 22 100 22 l88 0 0 -395 0 -395 -85 0 -85 0 -2
283 c-3 274 -3 281 -20 246 -9 -19 -29 -47 -43 -63 -14 -15 -25 -29 -25 -31 0
-9 -66 -111 -76 -117 -7 -5 -26 -33 -43 -63 -17 -30 -36 -55 -41 -55 -6 0 -10
-4 -10 -9 0 -11 -62 -105 -95 -146 -14 -16 -25 -33 -25 -37 0 -4 -40 -8 -90
-8 l-90 0 0 395 0 395 85 0 85 0 1 -282z m869 165 c0 -139 10 -181 52 -223 38
-39 66 -50 122 -50 96 0 188 62 202 136 3 19 10 34 15 34 5 0 9 50 9 110 l0
110 85 0 85 0 0 -395 0 -395 -85 0 -85 0 0 185 c0 117 -4 185 -10 185 -5 0
-10 -7 -10 -14 0 -18 -61 -66 -83 -66 -8 0 -23 -8 -33 -17 -14 -14 -36 -17
-112 -18 -68 0 -97 4 -99 13 -3 6 -11 12 -19 12 -32 0 -94 42 -125 85 -18 25
-35 45 -39 45 -15 0 -32 107 -37 238 l-6 142 87 0 86 0 0 -117z m2430 -28 c0
-80 2 -145 4 -145 2 0 69 65 148 145 l145 145 96 0 c54 0 97 -3 97 -8 0 -4
-28 -32 -61 -62 -34 -30 -99 -92 -145 -137 -46 -46 -87 -83 -91 -83 -12 0 -63
-53 -63 -65 0 -6 49 -63 110 -126 60 -63 109 -119 110 -126 0 -6 5 -13 10 -15
15 -5 160 -150 160 -160 0 -4 -47 -8 -105 -8 -63 0 -105 4 -105 10 0 5 -36 46
-80 89 -44 44 -80 83 -80 87 0 4 -29 36 -65 72 -36 35 -65 69 -65 73 0 5 -4 9
-10 9 -6 0 -10 -63 -10 -170 l0 -170 -85 0 -85 0 0 395 0 395 85 0 85 0 0
-145z m2120 -250 l0 -395 -85 0 -85 0 0 130 0 131 -121 -3 -122 -3 -30 -60
c-17 -33 -35 -65 -41 -71 -6 -6 -22 -37 -36 -67 l-25 -56 -87 -1 c-51 0 -88 4
-88 10 0 13 59 128 68 132 9 4 82 144 82 157 0 5 -9 13 -20 16 -33 11 -88 67
-105 108 -16 39 -22 137 -10 178 25 92 83 149 168 164 20 4 37 11 37 16 0 5
111 9 250 9 l250 0 0 -395z m-17810 315 c25 -25 25 -51 2 -81 -21 -25 -71 -30
-96 -9 -21 17 -20 69 1 92 21 24 68 23 93 -2z m7200 -11 c0 -5 -7 -9 -15 -9
-15 0 -20 12 -9 23 8 8 24 -1 24 -14z m-104 -45 c15 -36 2 -74 -25 -74 -24 0
-36 45 -21 84 12 33 30 30 46 -10z m-7836 -44 c0 -5 -4 -10 -10 -10 -5 0 -10
5 -10 10 0 6 5 10 10 10 6 0 10 -4 10 -10z m1521 -252 c-10 -28 -27 -34 -35
-12 -7 18 8 34 31 34 9 0 10 -7 4 -22z m2487 -234 l83 -29 -7 -45 c-10 -62 -8
-79 11 -101 10 -10 15 -23 13 -30 -2 -7 -40 32 -83 87 -44 54 -82 101 -85 104
-3 3 -14 16 -25 29 -14 17 -16 23 -5 19 8 -3 52 -18 98 -34z m-2369 -11 c0
-35 -1 -36 -10 -14 -5 14 -7 31 -5 38 10 24 16 13 15 -24z m6540 -17 c-11 -9
-69 -14 -69 -6 0 6 17 10 37 10 20 0 34 -2 32 -4z m-6376 -113 c15 -9 6 -24
-28 -44 -40 -24 -45 -46 -13 -51 32 -4 33 -32 3 -48 -25 -14 -26 -14 -6 -22
25 -9 29 -48 5 -48 -13 0 -14 -3 -5 -14 6 -7 9 -20 5 -27 -8 -21 -64 -62 -72
-54 -4 4 -6 58 -5 121 2 112 9 137 47 191 7 11 45 9 69 -4z m14667 -38 c0 -8
-7 -15 -15 -15 -8 0 -15 7 -15 15 0 8 7 15 15 15 8 0 15 -7 15 -15z m-15235
-5 c3 -5 1 -10 -4 -10 -6 0 -11 5 -11 10 0 6 2 10 4 10 3 0 8 -4 11 -10z m185
-40 c0 -46 -3 -52 -35 -72 -42 -28 -44 -36 -7 -40 23 -2 28 -8 30 -37 l3 -33
-28 21 c-77 57 -78 58 -68 85 9 22 92 126 102 126 1 0 3 -22 3 -50z m180 -45
c-6 -67 -7 -71 -9 -29 -1 48 8 118 14 112 2 -2 0 -39 -5 -83z m6570 81 c0 -2
-7 -6 -15 -10 -8 -3 -15 -1 -15 4 0 6 7 10 15 10 8 0 15 -2 15 -4z m-6960
-121 c11 -13 10 -14 -4 -9 -9 3 -16 10 -16 15 0 13 6 11 20 -6z m24 -30 c-4
-8 -11 -12 -16 -9 -6 4 -5 10 3 15 19 12 19 11 13 -6z m-30 -10 c3 -8 1 -15
-4 -15 -6 0 -10 7 -10 15 0 8 2 15 4 15 2 0 6 -7 10 -15z m56 -5 c0 -5 -5 -10
-11 -10 -5 0 -7 5 -4 10 3 6 8 10 11 10 2 0 4 -4 4 -10z m7334 -19 c9 -14
-153 -24 -236 -15 -64 7 -69 9 -38 15 54 10 268 10 274 0z m-7232 -28 c8 -10
18 -30 21 -44 6 -24 4 -26 -27 -27 -26 -1 -35 3 -39 18 -3 11 -1 22 3 25 5 3
7 14 5 25 -5 25 17 26 37 3z m1713 -176 c18 -19 40 -48 49 -66 l17 -32 -33 5
c-18 3 -120 19 -227 36 -107 17 -197 32 -199 35 -9 9 28 17 155 35 191 27 200
26 238 -13z m-1913 -10 c22 -17 30 -18 42 -7 23 18 41 7 53 -34 12 -40 8 -44
-18 -20 -10 9 -37 20 -59 24 -38 7 -40 6 -41 -19 l0 -26 -10 24 c-5 14 -8 30
-5 38 3 7 1 15 -4 18 -6 4 -10 13 -10 21 0 16 7 14 52 -19z m218 -6 c18 -1 25
-102 9 -133 -8 -15 -7 -24 5 -37 16 -18 12 -60 -8 -73 -7 -5 -5 -17 7 -37 20
-35 22 -54 2 -27 -7 10 -18 15 -24 12 -6 -4 -19 -2 -30 4 -13 7 -22 7 -26 0
-3 -5 -1 -10 5 -10 6 0 8 -5 3 -12 -4 -7 -8 -17 -9 -23 0 -5 -2 -16 -2 -23 -3
-20 -40 8 -51 38 -8 21 -10 22 -11 5 -1 -19 -1 -19 -11 -2 -13 21 -11 24 16
29 13 2 19 -2 17 -10 -1 -8 2 -11 8 -7 5 3 10 12 10 18 0 7 9 19 20 27 15 11
19 25 18 62 -1 53 -7 63 -25 42 -8 -8 -9 -15 -3 -19 15 -9 12 -17 -19 -54 -33
-39 -46 -35 -61 17 -16 58 -13 82 10 82 15 0 20 -7 20 -29 0 -20 6 -30 20 -34
24 -6 26 1 4 17 -20 15 -9 47 14 39 11 -5 14 -2 9 10 -8 21 12 67 28 67 7 0
16 -14 21 -32 5 -17 16 -34 23 -36 11 -4 12 0 6 14 -5 11 -10 36 -13 58 -3 27
-10 40 -23 43 -27 7 -24 21 4 18 12 -1 29 -3 37 -4z m214 -126 c6 -106 27
-283 41 -352 6 -27 6 -27 -9 -9 -9 11 -16 39 -16 62 0 24 -4 45 -9 48 -12 8
-28 116 -36 236 -3 52 -8 103 -11 113 -4 12 0 17 14 17 17 0 20 -11 26 -115z
m-814 26 c0 -5 -7 -12 -16 -15 -14 -5 -15 -4 -4 9 14 17 20 19 20 6z m1268
-163 c-2 -16 -9 -23 -25 -22 -17 0 -20 -3 -12 -12 12 -15 -3 -26 -25 -18 -27
10 -15 37 22 48 12 4 22 12 22 17 0 5 5 9 11 9 6 0 9 -10 7 -22z m9492 -26 c0
-4 30 -12 68 -18 37 -6 93 -23 125 -37 l57 -26 0 -85 0 -85 -65 30 c-35 16
-71 29 -80 29 -8 0 -15 4 -15 9 0 39 -322 40 -350 1 -3 -4 -21 -15 -40 -25
-61 -30 -135 -120 -156 -189 -37 -119 -15 -309 42 -361 13 -12 24 -27 24 -34
0 -6 19 -23 43 -38 23 -16 48 -33 55 -40 52 -50 318 -56 437 -11 17 7 32 14
35 17 7 8 87 51 94 51 4 0 6 -37 6 -83 l0 -83 -39 -22 c-21 -12 -46 -22 -54
-22 -8 0 -17 -5 -19 -10 -2 -6 -41 -17 -88 -26 -130 -25 -390 -6 -390 28 0 4
-5 8 -11 8 -17 0 -118 50 -126 63 -5 7 -27 27 -50 46 -24 18 -43 37 -43 42 0
10 -39 69 -52 79 -3 3 -16 34 -29 70 -43 120 -27 381 27 434 8 8 14 17 14 20
0 11 71 116 78 116 5 0 25 15 45 33 45 42 139 85 217 99 33 7 60 15 60 20 0 4
41 8 90 8 50 0 90 -4 90 -8z m6230 -462 l0 -439 103 -3 102 -3 3 -72 3 -73
-311 0 -310 0 0 75 0 75 120 0 120 0 0 370 0 370 -120 0 -120 0 0 70 0 70 205
0 205 0 0 -440z m670 436 c0 -3 -6 -11 -14 -18 -7 -8 -30 -49 -51 -91 -21 -42
-41 -77 -44 -77 -4 0 -22 -34 -41 -75 -19 -41 -37 -75 -40 -75 -3 0 -24 -37
-45 -82 -22 -46 -46 -90 -54 -98 -13 -13 9 -15 192 -18 l207 -2 0 -245 0 -245
-90 0 -90 0 0 170 0 170 -245 0 c-206 0 -245 2 -245 14 0 8 6 21 14 29 8 8 31
48 51 91 20 42 40 76 44 76 4 0 20 27 35 60 16 34 33 66 40 73 6 7 26 42 44
79 18 37 38 73 45 80 7 7 27 45 46 83 51 104 52 104 154 104 48 1 87 -1 87 -3z
m-17072 -93 c2 -8 -5 -13 -18 -13 -13 0 -20 -5 -17 -12 2 -7 15 -13 28 -13 14
0 23 5 22 13 -2 7 8 12 28 12 26 0 30 -3 28 -22 -2 -13 2 -33 9 -45 17 -30 15
-80 -3 -87 -21 -8 -105 26 -105 42 0 10 -8 13 -25 10 -14 -3 -25 -1 -25 3 0 5
12 9 26 9 15 0 23 4 18 11 -3 6 -14 9 -24 6 -11 -3 -20 2 -23 12 -3 9 -8 23
-12 32 -9 23 33 61 64 57 13 -2 26 -9 29 -15z m6752 -33 c0 -5 -2 -10 -4 -10
-3 0 -8 5 -11 10 -3 6 -1 10 4 10 6 0 11 -4 11 -10z m-83 -127 c-2 -16 -4 -3
-4 27 0 30 2 43 4 28 2 -16 2 -40 0 -55z m-6707 27 c0 -5 -5 -10 -11 -10 -5 0
-7 5 -4 10 3 6 8 10 11 10 2 0 4 -4 4 -10z m11748 -9 c2 -6 10 -11 18 -11 8 0
42 -13 75 -29 l59 -30 0 30 0 29 80 0 80 0 0 -390 0 -390 -85 0 -85 0 0 35 0
35 -37 -21 c-21 -12 -41 -26 -44 -31 -10 -15 -110 -38 -169 -38 -70 0 -164 22
-185 44 -9 9 -24 16 -32 16 -26 0 -136 121 -152 165 -8 22 -18 42 -22 45 -25
16 -24 274 0 290 5 3 18 28 31 55 12 28 44 71 71 97 45 43 123 88 155 88 8 0
14 4 14 9 0 14 46 20 140 16 50 -2 86 -8 88 -14z m-468 -76 l0 -65 -155 0
-155 0 0 -325 0 -325 -85 0 -85 0 0 325 0 324 -147 3 -148 3 -3 63 -3 62 391
0 390 0 0 -65z m1100 -90 l0 -155 200 0 200 0 0 155 0 155 80 0 80 0 0 -390 0
-390 -80 0 -80 0 0 165 0 165 -200 0 -200 0 0 -165 0 -165 -80 0 -80 0 0 390
0 390 80 0 80 0 0 -155z m840 -165 l0 -320 195 0 195 0 0 320 0 320 80 0 80 0
0 -320 0 -320 65 0 65 0 0 -220 0 -220 -75 0 -75 0 0 150 0 150 -340 0 -340 0
0 390 0 390 75 0 75 0 0 -320z m930 45 c0 -216 3 -273 13 -269 13 6 87 119 87
134 0 6 4 10 9 10 6 0 25 25 43 55 18 30 36 55 39 55 4 0 21 24 38 54 17 30
36 58 43 63 7 4 19 19 26 32 8 13 22 38 32 56 10 17 29 43 42 58 24 25 31 27
112 27 l86 0 0 -390 0 -390 -85 0 -85 0 0 283 c-1 265 -2 280 -17 252 -9 -16
-22 -33 -29 -38 -7 -4 -25 -30 -40 -57 -15 -28 -31 -50 -36 -50 -5 0 -11 -8
-15 -17 -7 -20 -59 -98 -85 -127 -9 -10 -24 -33 -32 -50 -9 -17 -27 -42 -41
-55 -14 -13 -25 -27 -25 -32 0 -12 -51 -91 -65 -101 -5 -4 -49 -8 -97 -8 l-88
0 0 390 0 390 85 0 85 0 0 -275z m1430 -115 l0 -390 -85 0 -85 0 0 130 0 131
-121 -3 -121 -3 -26 -50 c-15 -27 -31 -55 -37 -61 -5 -6 -23 -41 -40 -77 l-30
-66 -92 -1 c-76 0 -93 3 -93 15 0 8 4 15 8 15 5 0 21 24 35 54 15 30 33 60 40
68 15 15 77 133 77 146 0 5 -18 17 -41 27 -50 23 -99 100 -99 157 0 20 -6 39
-12 41 -9 4 -10 8 -2 14 6 4 14 28 18 52 9 61 43 117 85 143 69 40 114 46 374
47 l247 1 0 -390z m-8923 364 c-3 -3 -12 -4 -19 -1 -8 3 -5 6 6 6 11 1 17 -2
13 -5z m-6789 -57 c6 -7 16 -43 22 -80 6 -37 16 -78 22 -92 12 -26 37 -34 39
-12 0 6 7 -1 14 -18 16 -36 12 -45 -18 -37 -18 4 -20 3 -11 -9 6 -8 17 -36 24
-64 7 -27 29 -84 48 -125 47 -100 53 -119 40 -139 -10 -17 -2 -40 55 -147 39
-72 25 -125 -46 -178 -54 -40 -161 -16 -190 42 -49 97 -5 181 104 198 24 4 38
9 32 11 -23 8 -71 108 -112 235 -23 70 -41 134 -41 143 0 20 -6 19 -94 -9 -62
-19 -78 -21 -92 -11 -15 11 -12 14 27 28 24 8 66 21 92 28 27 7 51 18 54 25 3
8 -2 35 -11 61 -20 59 -20 112 0 141 17 25 27 27 42 9z m6827 -49 c-4 -44 -7
-67 -14 -96 -1 -2 -6 0 -12 4 -8 4 -8 9 0 17 6 6 11 23 11 38 0 22 -6 29 -30
34 -16 4 -30 11 -30 16 0 14 30 11 31 -3 0 -9 3 -8 6 2 8 18 26 39 35 40 4 0
6 -24 3 -52z m-6322 11 c5 -20 5 -20 -15 -2 -21 18 -21 18 -9 -5 7 -13 10 -26
7 -29 -5 -5 -26 39 -26 53 0 2 8 4 19 4 11 0 21 -9 24 -21z m-179 -47 c-6 -4
-15 -18 -19 -31 -5 -17 -4 -22 6 -19 8 3 13 13 13 22 -1 9 2 16 7 16 14 0 10
-36 -5 -49 -22 -19 -47 -3 -41 28 5 26 34 56 44 45 3 -3 1 -8 -5 -12z m46 -92
c0 -5 -4 -10 -10 -10 -5 0 -10 5 -10 10 0 6 5 10 10 10 6 0 10 -4 10 -10z
m190 -11 c0 -5 -7 -9 -15 -9 -9 0 -12 6 -9 15 6 15 24 11 24 -6z m20 -63 c0
-8 -3 -16 -7 -19 -5 -2 -3 -2 4 -1 15 4 36 -22 28 -36 -3 -5 -13 -10 -21 -10
-8 0 -14 -4 -14 -10 0 -5 -7 -10 -15 -10 -8 0 -15 7 -15 15 0 8 3 14 8 14 28
-5 35 2 18 20 -9 10 -14 25 -10 35 8 20 24 21 24 2z m-50 0 c0 -3 -4 -8 -10
-11 -5 -3 -10 -1 -10 4 0 6 5 11 10 11 6 0 10 -2 10 -4z m90 -85 c0 -5 3 -16
6 -25 3 -9 2 -16 -4 -16 -5 0 -12 11 -14 25 -3 14 -1 25 3 25 5 0 9 -4 9 -9z
m-28 -53 c-2 -20 4 -30 20 -39 21 -11 22 -11 9 5 -16 19 -6 35 11 18 13 -13 2
-42 -20 -50 -13 -4 -38 33 -48 71 -6 25 -4 28 12 25 14 -3 18 -11 16 -30z
m6356 -326 c3 -9 -2 -13 -14 -10 -9 1 -19 9 -22 16 -3 9 2 13 14 10 9 -1 19
-9 22 -16z m-215 -70 c8 -12 -55 -158 -127 -298 -81 -156 -92 -172 -108 -156
-9 9 -4 22 21 57 34 48 137 258 172 351 19 51 32 64 42 46z m-6593 -199 c-22
-29 -465 -477 -516 -523 -60 -54 89 106 305 326 211 215 265 266 211 197z
m17250 -93 l0 -70 -4575 0 -4575 0 0 70 0 70 4575 0 4575 0 0 -70z m-14045 30
c3 -6 -1 -7 -9 -4 -18 7 -21 14 -7 14 6 0 13 -4 16 -10z m-4 -37 c13 -16 12
-17 -3 -4 -17 13 -22 21 -14 21 2 0 10 -8 17 -17z m3134 -44 c4 -5 4 -21 1
-35 -6 -21 -9 -23 -26 -14 -19 10 -27 40 -13 53 10 10 31 8 38 -4z m-6158 -5
c-3 -3 -12 -4 -19 -1 -8 3 -5 6 6 6 11 1 17 -2 13 -5z m5911 -280 c-23 -24
-40 -10 -26 22 10 22 13 23 27 9 14 -13 14 -17 -1 -31z m114 -17 c7 -7 43 -32
80 -55 l67 -44 -40 -59 c-23 -32 -45 -62 -50 -65 -12 -7 -66 33 -128 94 -35
35 -42 48 -34 61 14 23 52 26 60 5 3 -9 1 -24 -5 -34 -9 -14 -2 -23 45 -54 31
-20 57 -35 58 -34 1 2 11 17 23 35 12 17 22 35 22 41 0 5 -32 30 -70 56 -39
26 -68 51 -65 56 8 13 21 12 37 -3z m-162 -4 c0 -5 -28 -41 -61 -81 -44 -53
-64 -71 -72 -63 -11 11 -4 22 77 109 38 40 56 51 56 35z m50 -251 c0 -12 -115
-149 -195 -233 -69 -72 -77 -78 -100 -69 -14 5 -29 19 -33 31 -5 12 -26 34
-48 48 -42 29 -54 55 -29 64 22 9 66 -10 72 -31 5 -18 51 -58 74 -66 8 -3 30
15 49 39 148 184 210 248 210 217z m-5720 -67 c0 -8 -4 -15 -10 -15 -5 0 -10
7 -10 15 0 8 5 15 10 15 6 0 10 -7 10 -15z m5383 -247 c-4 -7 -10 -49 -13 -93
-4 -61 -8 -80 -20 -80 -8 0 -19 18 -27 44 -7 24 -18 50 -24 57 -14 17 -15 15
42 53 50 34 53 36 42 19z m-5463 -186 c0 -13 -12 -22 -22 -16 -10 6 -1 24 13
24 5 0 9 -4 9 -8z m5376 -4 c4 -6 -11 -27 -37 -51 -24 -22 -63 -57 -85 -78
-38 -35 -43 -37 -55 -22 -12 14 -10 18 11 32 14 8 52 41 85 73 64 61 70 65 81
46z m-5115 -83 c0 -5 -9 -11 -21 -13 -20 -3 -27 8 -13 22 10 9 34 3 34 -9z
m653 -362 c-180 -222 -604 -733 -631 -760 -11 -11 -27 -30 -36 -43 -9 -13 -18
-22 -21 -19 -2 2 50 69 116 149 437 529 598 720 606 720 2 0 -13 -21 -34 -47z
m13616 -48 c0 -8 -7 -15 -15 -15 -8 0 -15 7 -15 15 0 8 7 15 15 15 8 0 15 -7
15 -15z m-4290 -30 c0 -8 -7 -15 -15 -15 -8 0 -15 7 -15 15 0 8 7 15 15 15 8
0 15 -7 15 -15z m-8031 -25 c55 -11 107 -17 116 -14 11 5 15 -1 15 -25 l0 -31
33 20 c17 11 44 20 59 20 24 0 28 -5 38 -57 6 -32 18 -77 27 -100 31 -85 -7
-120 -69 -63 l-33 29 28 1 c15 0 27 3 27 6 0 7 -57 78 -100 125 -33 35 -44 39
-140 59 -116 24 -120 25 -120 46 0 8 4 12 10 9 5 -3 55 -15 109 -25z m-5 -206
c9 -3 14 -10 11 -15 -7 -10 -35 0 -35 12 0 11 3 11 24 3z m136 -94 c0 -11 -7
-20 -15 -20 -15 0 -21 21 -8 33 12 13 23 7 23 -13z m5660 -5 c0 -8 -7 -15 -15
-15 -8 0 -15 7 -15 15 0 8 7 15 15 15 8 0 15 -7 15 -15z m-4703 -41 c-3 -3
-12 -4 -19 -1 -8 3 -5 6 6 6 11 1 17 -2 13 -5z m-837 -14 c0 -5 -5 -10 -11
-10 -5 0 -7 5 -4 10 3 6 8 10 11 10 2 0 4 -4 4 -10z m104 -7 c10 -24 -8 -37
-33 -24 -12 7 -21 15 -21 20 0 25 45 29 54 4z m3186 -58 c0 -8 -7 -15 -15 -15
-8 0 -15 7 -15 15 0 8 7 15 15 15 8 0 15 -7 15 -15z m-6250 -19 c0 -2 -8 -10
-17 -17 -16 -13 -17 -12 -4 4 13 16 21 21 21 13z m2190 -6 c0 -5 -4 -10 -10
-10 -5 0 -10 5 -10 10 0 6 5 10 10 10 6 0 10 -4 10 -10z m497 -36 c8 -20 -8
-36 -26 -25 -15 10 -8 41 9 41 6 0 13 -7 17 -16z m238 -14 c3 -5 1 -10 -4 -10
-6 0 -11 5 -11 10 0 6 2 10 4 10 3 0 8 -4 11 -10z m901 -98 c-11 -10 -14 3 -8
33 l7 30 3 -28 c2 -16 1 -31 -2 -35z m24 -42 c33 -25 20 -36 -19 -15 -18 9
-36 13 -41 10 -6 -3 -10 -2 -10 4 0 9 16 19 35 20 6 0 21 -8 35 -19z m-954
-56 c-6 -17 -8 -17 -24 0 -15 15 -15 18 -2 26 19 12 35 -3 26 -26z m948 0 c9
-8 16 -27 16 -41 0 -60 -74 -86 -106 -38 -38 57 42 128 90 79z m-1246 -67 c2
-10 -3 -17 -12 -17 -18 0 -29 16 -21 31 9 14 29 6 33 -14z m3126 -433 c31 -30
9 -84 -34 -84 -24 0 -50 26 -50 50 0 24 26 50 50 50 10 0 26 -7 34 -16z
m-3524 -229 c0 -8 -7 -15 -15 -15 -8 0 -15 7 -15 15 0 8 7 15 15 15 8 0 15 -7
15 -15z m13144 -221 c31 -30 9 -84 -34 -84 -24 0 -50 26 -50 50 0 24 26 50 50
50 10 0 26 -7 34 -16z m-6710 -40 c31 -30 9 -84 -34 -84 -24 0 -50 26 -50 50
0 24 26 50 50 50 10 0 26 -7 34 -16z m3736 -99 c0 -8 -7 -15 -15 -15 -8 0 -15
7 -15 15 0 8 7 15 15 15 8 0 15 -7 15 -15z"/>
<path d="M4292 9261 c-6 -17 -9 -31 -6 -31 7 0 25 52 20 57 -2 2 -8 -10 -14
-26z"/>
<path d="M4150 9248 c-14 -23 -20 -51 -20 -90 0 -59 14 -91 16 -35 0 18 12 51
27 74 15 24 27 52 27 63 0 31 -28 24 -50 -12z"/>
<path d="M3911 8954 c-25 -9 -61 -26 -81 -39 -41 -26 -144 -135 -135 -143 3
-3 14 4 25 16 30 31 81 55 199 93 98 31 103 34 83 47 -12 8 -22 21 -22 28 0
18 -14 17 -69 -2z"/>
<path d="M4100 8649 c0 -5 5 -7 10 -4 6 3 10 8 10 11 0 2 -4 4 -10 4 -5 0 -10
-5 -10 -11z"/>
<path d="M4186 8631 c-10 -11 -13 -22 -8 -25 5 -3 15 1 22 9 6 7 19 11 28 8
15 -6 15 -5 3 10 -17 22 -24 21 -45 -2z"/>
<path d="M4113 8573 c-18 -7 -16 -23 2 -23 8 0 15 -5 15 -11 0 -19 33 -5 41
19 7 19 5 22 -19 21 -15 0 -33 -3 -39 -6z"/>
<path d="M4186 8543 c-10 -11 -7 -72 5 -79 18 -11 42 22 35 49 -6 25 -28 41
-40 30z m27 -51 c-5 -12 -7 -12 -15 2 -11 20 1 44 12 25 5 -6 6 -19 3 -27z"/>
<path d="M3157 8473 c-4 -3 -7 -11 -7 -17 0 -6 5 -5 12 2 6 6 9 14 7 17 -3 3
-9 2 -12 -2z"/>
<path d="M3744 8402 c-16 -11 -23 -37 -14 -51 9 -16 50 3 50 23 0 18 -23 36
-36 28z"/>
<path d="M2537 8018 c-29 -40 -57 -80 -61 -88 -14 -28 99 96 117 128 33 58 -2
33 -56 -40z"/>
<path d="M2497 7626 c-32 -16 -36 -71 -6 -87 21 -11 26 -8 51 22 16 19 27 43
26 53 -3 23 -37 28 -71 12z"/>
<path d="M2197 7544 c-15 -14 -40 -44 -54 -66 -25 -37 -27 -50 -28 -134 0 -52
3 -94 7 -94 13 0 99 191 111 245 14 69 3 85 -36 49z"/>
<path d="M2207 7174 c-13 -14 -7 -41 14 -60 21 -19 21 -18 40 5 27 33 21 55
-16 59 -17 2 -34 0 -38 -4z"/>
<path d="M2035 7150 c-3 -5 -1 -10 4 -10 6 0 11 5 11 10 0 6 -2 10 -4 10 -3 0
-8 -4 -11 -10z"/>
<path d="M1922 6688 c-18 -18 -15 -34 11 -51 42 -27 76 12 41 47 -19 19 -36
20 -52 4z"/>
<path d="M5250 8556 c0 -8 -10 -16 -21 -18 -12 -2 -28 -13 -37 -25 -14 -22
-13 -23 12 -23 14 0 26 5 26 11 0 8 4 8 13 0 20 -16 50 9 45 39 -3 27 -38 41
-38 16z"/>
<path d="M4970 8521 c0 -10 7 -21 15 -25 16 -6 19 3 9 28 -8 22 -24 20 -24 -3z"/>
<path d="M5950 8358 c1 -18 25 -48 39 -48 17 0 13 31 -6 46 -23 17 -33 17 -33
2z"/>
<path d="M6603 7987 c5 -12 33 -40 61 -61 l51 -40 -31 35 c-17 19 -38 46 -47
62 -22 34 -50 38 -34 4z"/>
<path d="M6550 7955 c-7 -9 -11 -18 -8 -20 3 -3 11 1 18 10 7 9 11 18 8 20 -3
3 -11 -1 -18 -10z"/>
<path d="M6837 7777 c-3 -9 1 -18 10 -21 23 -9 29 2 11 20 -13 14 -16 14 -21
1z"/>
<path d="M7244 7535 c-3 -8 -3 -19 1 -25 11 -17 35 -11 35 9 0 23 -29 36 -36
16z"/>
<path d="M7892 6533 c-14 -34 -21 -83 -26 -164 l-7 -116 30 -32 c16 -17 33
-31 39 -31 5 0 12 27 16 60 5 45 11 60 23 60 14 0 15 -17 8 -157 -4 -87 -8
-171 -9 -188 -1 -27 2 -29 40 -33 l41 -3 5 51 c3 28 10 56 17 63 8 8 11 -18
11 -106 0 -124 4 -133 45 -103 18 13 19 19 7 98 -19 132 -77 354 -120 458 -57
139 -81 190 -91 190 -5 0 -18 -21 -29 -47z"/>
<path d="M7736 6395 c4 -8 7 -15 9 -15 2 0 5 7 9 15 3 9 0 15 -9 15 -9 0 -12
-6 -9 -15z"/>
<path d="M7964 5865 c3 -9 6 -27 6 -41 0 -19 5 -23 21 -21 26 4 48 32 45 55
-2 12 -14 18 -41 20 -32 3 -37 1 -31 -13z"/>
<path d="M8273 5843 c-7 -2 -13 -16 -13 -29 0 -23 3 -24 60 -24 l60 0 0 30 c0
29 -1 30 -47 29 -27 0 -54 -3 -60 -6z"/>
<path d="M8137 5793 c-5 -4 -18 -8 -30 -8 -19 0 -22 -6 -25 -45 -3 -55 10 -79
31 -61 11 8 17 9 22 1 4 -7 12 -5 22 5 12 12 13 19 3 30 -7 8 -18 15 -25 15
-7 0 -15 7 -19 15 -3 8 -1 15 3 15 5 0 11 -4 13 -10 2 -5 9 -6 16 -1 8 5 10
15 4 30 -4 12 -11 18 -15 14z"/>
<path d="M8278 5765 c-3 -3 -3 -17 0 -31 3 -18 10 -24 26 -22 13 2 21 -2 21
-12 0 -10 -8 -14 -22 -12 -19 3 -23 -2 -23 -22 0 -29 6 -34 52 -40 44 -5 54 2
53 37 0 21 -5 27 -22 27 -13 0 -23 5 -23 10 0 6 9 10 20 10 16 0 20 7 20 30 0
29 -1 30 -48 30 -27 0 -51 -2 -54 -5z"/>
<path d="M7997 5741 c3 -10 18 -32 34 -47 24 -23 29 -25 29 -10 0 15 -50 76
-63 76 -3 0 -3 -9 0 -19z"/>
<path d="M8126 5634 c-3 -8 -12 -14 -20 -14 -11 0 -12 -8 -6 -33 9 -42 32 -90
45 -94 22 -7 43 50 38 102 -4 44 -8 50 -28 51 -13 1 -26 -4 -29 -12z"/>
<path d="M8290 5573 c0 -33 0 -33 50 -33 l50 0 0 35 0 36 -50 -3 c-49 -3 -50
-4 -50 -35z"/>
<path d="M8297 5513 c-20 -19 -5 -41 31 -47 59 -9 62 -8 62 24 0 29 -2 30 -43
30 -24 0 -47 -3 -50 -7z"/>
<path d="M8167 5486 c-4 -9 -14 -16 -24 -16 -37 0 -44 -14 -28 -47 17 -35 24
-124 12 -166 -7 -27 -7 -28 25 -25 l33 3 3 118 c3 113 -7 171 -21 133z"/>
<path d="M8296 5418 c1 -13 3 -26 3 -30 1 -5 21 -8 46 -8 43 0 45 1 45 30 0
29 -1 30 -48 30 -45 0 -48 -2 -46 -22z"/>
<path d="M8290 5335 c0 -17 6 -25 18 -26 79 -5 77 -5 80 24 3 26 2 27 -47 27
-48 0 -51 -2 -51 -25z"/>
<path d="M7710 5305 c0 -8 2 -15 4 -15 2 0 6 7 10 15 3 8 1 15 -4 15 -6 0 -10
-7 -10 -15z"/>
<path d="M8290 5261 c0 -26 4 -30 40 -36 49 -8 60 -2 60 36 0 28 -1 29 -50 29
-49 0 -50 -1 -50 -29z"/>
<path d="M2225 5270 c3 -5 8 -10 11 -10 2 0 4 5 4 10 0 6 -5 10 -11 10 -5 0
-7 -4 -4 -10z"/>
<path d="M2185 5230 c3 -5 8 -10 11 -10 2 0 4 5 4 10 0 6 -5 10 -11 10 -5 0
-7 -4 -4 -10z"/>
<path d="M8130 5207 c-25 -13 -79 -139 -57 -136 7 1 19 -1 29 -5 9 -4 29 -6
44 -4 21 2 28 9 30 31 2 26 0 27 -39 27 -31 0 -38 3 -27 10 8 5 27 10 43 10
24 0 27 4 27 34 0 39 -17 50 -50 33z"/>
<path d="M7005 5200 c-8 -14 3 -30 21 -30 8 0 14 9 14 20 0 21 -24 28 -35 10z"/>
<path d="M8290 5175 c0 -35 0 -35 44 -35 37 0 45 4 50 23 11 43 8 47 -44 47
l-50 0 0 -35z"/>
<path d="M7682 5165 c0 -16 2 -22 5 -12 2 9 2 23 0 30 -3 6 -5 -1 -5 -18z"/>
<path d="M7426 5144 c-7 -18 0 -34 15 -34 5 0 9 11 9 25 0 28 -15 34 -24 9z"/>
<path d="M2136 5143 c-3 -3 -1 -14 5 -25 8 -15 13 -17 25 -7 8 6 14 15 14 19
0 9 -37 20 -44 13z"/>
<path d="M7232 5123 c2 -10 12 -18 23 -18 11 0 21 8 23 18 3 13 -3 17 -23 17
-20 0 -26 -4 -23 -17z"/>
<path d="M6357 5124 c-8 -8 1 -24 13 -24 4 0 10 7 14 15 5 15 -14 21 -27 9z"/>
<path d="M8285 5122 c-3 -3 -5 -18 -5 -34 0 -27 2 -28 50 -28 45 0 50 2 56 25
4 14 5 28 3 30 -7 6 -99 12 -104 7z"/>
<path d="M2050 5086 c0 -2 8 -10 18 -17 15 -13 16 -12 3 4 -13 16 -21 21 -21
13z"/>
<path d="M8276 5019 c-3 -18 -5 -33 -4 -35 2 -1 26 -4 53 -5 50 -4 50 -4 53
29 2 21 -1 32 -10 32 -7 1 -29 3 -49 6 -34 5 -37 4 -43 -27z"/>
<path d="M8050 5027 c0 -55 -28 -207 -65 -351 -59 -231 -59 -228 -29 -168 29
59 84 244 84 282 0 14 8 37 17 50 10 14 20 45 23 70 4 37 9 46 27 48 21 3 21
3 6 -65 -19 -89 -100 -326 -129 -383 -13 -25 -44 -76 -68 -115 -24 -38 -42
-73 -39 -77 6 -12 56 11 86 40 36 34 50 61 88 170 17 48 33 89 35 91 3 3 11
-5 19 -16 10 -14 22 -19 35 -16 23 6 27 33 5 33 -17 0 -37 33 -30 52 5 13 55
339 55 357 0 7 -24 11 -60 11 -42 0 -60 -4 -60 -13z"/>
<path d="M2407 5003 c-4 -3 -7 -11 -7 -17 0 -6 5 -5 12 2 6 6 9 14 7 17 -3 3
-9 2 -12 -2z"/>
<path d="M6922 4968 c-7 -7 -12 -22 -12 -34 0 -52 77 -61 95 -11 8 24 6 31
-10 43 -23 17 -57 18 -73 2z"/>
<path d="M5780 4881 c0 -19 23 -35 34 -24 14 15 5 43 -14 43 -13 0 -20 -7 -20
-19z"/>
<path d="M2368 4869 c18 -12 35 -19 38 -16 3 3 -8 13 -25 21 -43 23 -52 19
-13 -5z"/>
<path d="M2286 4841 c-19 -21 -14 -41 9 -41 17 0 30 39 18 51 -6 6 -16 2 -27
-10z"/>
<path d="M7620 4859 c0 -13 -61 -210 -75 -243 -25 -59 -10 -54 18 6 26 57 72
227 62 236 -3 3 -5 3 -5 1z"/>
<path d="M3002 4793 c2 -10 10 -18 18 -18 8 0 16 8 18 18 2 12 -3 17 -18 17
-15 0 -20 -5 -18 -17z"/>
<path d="M1705 4760 c-3 -5 1 -10 10 -10 9 0 13 5 10 10 -3 6 -8 10 -10 10 -2
0 -7 -4 -10 -10z"/>
<path d="M2667 4757 c-8 -22 8 -39 34 -35 35 5 33 42 -2 46 -16 2 -29 -3 -32
-11z"/>
<path d="M3570 4715 c0 -8 7 -15 15 -15 8 0 15 7 15 15 0 8 -7 15 -15 15 -8 0
-15 -7 -15 -15z"/>
<path d="M2180 4680 c0 -5 5 -10 10 -10 6 0 10 5 10 10 0 6 -4 10 -10 10 -5 0
-10 -4 -10 -10z"/>
<path d="M3137 4673 c-12 -11 -8 -23 8 -23 8 0 15 7 15 15 0 16 -12 20 -23 8z"/>
<path d="M6853 4654 c-7 -19 11 -39 26 -30 16 10 13 33 -4 40 -9 3 -18 -1 -22
-10z"/>
<path d="M4315 4567 c-20 -16 -15 -44 11 -54 23 -9 51 23 38 44 -14 23 -27 26
-49 10z"/>
<path d="M2195 4560 c-3 -5 -1 -10 4 -10 6 0 11 5 11 10 0 6 -2 10 -4 10 -3 0
-8 -4 -11 -10z"/>
<path d="M2355 4500 c-4 -7 -3 -16 3 -22 14 -14 47 -6 47 12 0 18 -40 26 -50
10z"/>
<path d="M6670 4480 c0 -5 5 -10 10 -10 6 0 10 5 10 10 0 6 -4 10 -10 10 -5 0
-10 -4 -10 -10z"/>
<path d="M7331 4441 c-16 -28 14 -51 36 -28 13 13 14 19 3 31 -17 21 -27 20
-39 -3z"/>
<path d="M1870 4420 c0 -5 5 -10 10 -10 6 0 10 5 10 10 0 6 -4 10 -10 10 -5 0
-10 -4 -10 -10z"/>
<path d="M6156 4411 c-10 -16 5 -42 23 -39 21 4 21 42 -1 46 -9 2 -19 -1 -22
-7z"/>
<path d="M7802 4354 c-26 -10 -33 -19 -30 -36 2 -13 11 -24 20 -26 19 -4 51
39 46 62 -3 13 -7 13 -36 0z"/>
<path d="M6443 4338 c-33 -41 -19 -99 27 -113 32 -10 79 13 87 43 10 43 -16
76 -63 80 -25 2 -45 -2 -51 -10z"/>
<path d="M1950 4304 c0 -8 5 -12 10 -9 6 4 8 11 5 16 -9 14 -15 11 -15 -7z"/>
<path d="M3210 4305 c-11 -13 -11 -19 3 -32 21 -21 49 -9 45 19 -4 28 -30 35
-48 13z"/>
<path d="M2484 4302 c-48 -31 -29 -112 26 -112 59 0 75 81 21 109 -23 13 -32
13 -47 3z"/>
<path d="M7410 4245 c0 -8 7 -15 15 -15 9 0 12 6 9 15 -4 8 -10 15 -15 15 -5
0 -9 -7 -9 -15z"/>
<path d="M7289 4098 c-214 -329 -446 -580 -745 -804 -290 -217 -541 -350 -844
-449 -47 -15 -97 -34 -111 -41 -48 -24 -439 -84 -551 -84 -27 0 -48 -4 -48
-10 0 -23 291 5 495 46 44 10 92 18 107 19 15 1 33 6 40 12 7 5 60 27 118 48
221 79 362 144 538 248 109 63 298 192 342 232 19 17 58 49 85 70 102 81 316
305 406 425 108 144 258 385 247 396 -3 2 -38 -46 -79 -108z"/>
<path d="M6771 4161 c-7 -16 -11 -39 -9 -52 l3 -22 27 24 c35 31 42 73 12 77
-15 2 -24 -5 -33 -27z"/>
<path d="M2258 4103 c7 -3 16 -2 19 1 4 3 -2 6 -13 5 -11 0 -14 -3 -6 -6z"/>
<path d="M5512 4081 c-17 -11 -12 -56 7 -56 8 0 19 8 25 17 13 22 -11 52 -32
39z"/>
<path d="M6230 4060 c0 -15 5 -20 18 -18 9 2 17 10 17 18 0 8 -8 16 -17 18
-13 2 -18 -3 -18 -18z"/>
<path d="M5831 4056 c-16 -19 -6 -36 20 -36 15 0 20 6 17 22 -4 27 -21 33 -37
14z"/>
<path d="M6603 3945 c-250 -251 -416 -384 -621 -499 -251 -141 -558 -242 -844
-278 -80 -10 -98 -15 -98 -29 0 -38 22 -41 157 -19 542 88 947 296 1344 690
109 108 204 230 197 252 -3 7 -62 -44 -135 -117z"/>
<path d="M3756 4039 c-22 -33 0 -79 38 -79 29 0 46 18 46 50 0 50 -55 69 -84
29z"/>
<path d="M6956 4044 c-9 -22 3 -32 14 -14 12 19 12 30 1 30 -5 0 -12 -7 -15
-16z"/>
<path d="M2060 3933 c0 -25 1 -26 20 -8 21 19 18 35 -6 35 -9 0 -14 -10 -14
-27z"/>
<path d="M5946 3884 c-9 -8 -16 -31 -16 -49 0 -41 22 -65 58 -65 64 0 98 73
54 113 -23 21 -76 22 -96 1z"/>
<path d="M7644 3789 c-8 -14 11 -33 25 -25 6 4 11 14 11 22 0 16 -26 19 -36 3z"/>
<path d="M4325 3780 c-8 -14 3 -30 21 -30 8 0 14 9 14 20 0 21 -24 28 -35 10z"/>
<path d="M6850 3766 c0 -9 7 -16 16 -16 9 0 14 5 12 12 -6 18 -28 21 -28 4z"/>
<path d="M4510 3760 c0 -5 7 -10 15 -10 8 0 15 5 15 10 0 6 -7 10 -15 10 -8 0
-15 -4 -15 -10z"/>
<path d="M5471 3761 c-10 -7 -11 -13 -2 -30 14 -25 24 -26 41 -6 24 29 -5 57
-39 36z"/>
<path d="M7397 3723 c-12 -11 -8 -23 8 -23 8 0 15 7 15 15 0 16 -12 20 -23 8z"/>
<path d="M5390 3704 c0 -8 5 -12 10 -9 6 4 8 11 5 16 -9 14 -15 11 -15 -7z"/>
<path d="M6670 3682 c0 -24 8 -32 26 -25 19 7 18 29 -2 37 -23 9 -24 8 -24
-12z"/>
<path d="M2047 3683 c-12 -11 -8 -40 6 -52 21 -17 51 10 43 37 -7 21 -35 30
-49 15z"/>
<path d="M3020 3674 c-11 -12 -10 -18 3 -31 22 -23 52 0 36 28 -12 23 -22 24
-39 3z"/>
<path d="M7539 3674 c-9 -11 -10 -20 -2 -32 23 -37 70 -20 59 22 -7 30 -36 35
-57 10z"/>
<path d="M5760 3639 c0 -5 5 -7 10 -4 6 3 10 8 10 11 0 2 -4 4 -10 4 -5 0 -10
-5 -10 -11z"/>
<path d="M7434 3619 c-3 -6 -2 -15 3 -20 5 -5 9 -1 9 11 0 23 -2 24 -12 9z"/>
<path d="M7461 3614 c0 -11 3 -14 6 -6 3 7 2 16 -1 19 -3 4 -6 -2 -5 -13z"/>
<path d="M7622 3609 c-17 -6 -22 -15 -20 -31 4 -31 50 -36 77 -9 39 39 2 64
-57 40z"/>
<path d="M7180 3550 c0 -5 7 -7 15 -4 8 4 15 8 15 10 0 2 -7 4 -15 4 -8 0 -15
-4 -15 -10z"/>
<path d="M6650 3495 c0 -8 5 -15 10 -15 6 0 10 7 10 15 0 8 -4 15 -10 15 -5 0
-10 -7 -10 -15z"/>
<path d="M7554 3484 c-18 -15 -18 -15 9 -11 26 4 28 3 22 -25 -8 -35 8 -58 41
-58 50 0 57 76 9 98 -35 16 -57 15 -81 -4z"/>
<path d="M6620 3265 c0 -8 5 -15 10 -15 6 0 10 7 10 15 0 8 -4 15 -10 15 -5 0
-10 -7 -10 -15z"/>
<path d="M4141 3240 c17 -26 82 -54 192 -81 82 -21 287 -50 298 -44 3 3 4 15
2 28 -4 19 -12 23 -41 25 -106 6 -287 42 -442 88 -24 7 -24 7 -9 -16z"/>
<path d="M5975 3186 c-22 -7 -71 -31 -110 -52 l-70 -39 39 -3 c32 -3 44 2 71
28 18 18 47 33 68 37 20 3 44 14 53 24 21 23 9 24 -51 5z"/>
<path d="M7273 3010 c-55 -42 -71 -60 -53 -60 27 0 120 71 120 92 0 14 -14 8
-67 -32z"/>
<path d="M3490 3029 c32 -21 213 -110 292 -143 98 -40 242 -87 353 -115 185
-46 515 -87 515 -64 0 6 -45 13 -102 17 -303 20 -665 124 -992 282 -69 34 -94
43 -66 23z"/>
<path d="M5440 3004 c-162 -37 -157 -41 15 -14 82 13 114 23 99 32 -5 3 -56
-5 -114 -18z"/>
<path d="M6515 2770 c-14 -23 -89 -70 -112 -70 -12 0 -23 -4 -23 -9 0 -15 29
-21 53 -12 27 11 103 88 95 96 -3 4 -9 1 -13 -5z"/>
<path d="M4372 2674 c2 -11 11 -20 22 -22 13 -3 17 1 14 14 -2 11 -11 20 -22
22 -13 3 -17 -1 -14 -14z"/>
<path d="M5328 2673 c7 -3 16 -2 19 1 4 3 -2 6 -13 5 -11 0 -14 -3 -6 -6z"/>
<path d="M3676 2535 c-22 -22 -20 -34 4 -28 25 7 35 22 22 35 -6 6 -15 4 -26
-7z"/>
<path d="M6020 2520 c0 -24 29 -38 40 -20 12 19 1 40 -21 40 -12 0 -19 -7 -19
-20z"/>
<path d="M3847 2462 c-14 -15 -20 -39 -31 -116 -1 -10 -22 -36 -46 -56 l-43
-37 11 -71 c7 -39 17 -83 22 -98 10 -26 11 -26 30 -9 27 24 25 39 -11 99 l-32
50 58 52 c32 28 55 56 52 61 -4 6 2 37 12 69 10 33 17 62 14 67 -7 12 -19 8
-36 -11z"/>
<path d="M6925 2420 c-19 -12 -24 -20 -14 -20 9 0 24 9 34 20 23 25 18 25 -20
0z"/>
<path d="M6815 2363 c-62 -39 -83 -61 -147 -156 -33 -49 -104 -132 -158 -186
-118 -117 -189 -221 -151 -221 14 0 148 156 184 213 20 33 32 45 37 36 6 -8
14 -1 26 22 17 34 79 107 202 239 35 37 60 70 55 73 -4 2 -26 -7 -48 -20z"/>
<path d="M5413 2373 c9 -2 23 -2 30 0 6 3 -1 5 -18 5 -16 0 -22 -2 -12 -5z"/>
<path d="M5305 2365 c-5 -2 -22 -6 -36 -9 -38 -8 -79 -44 -72 -62 4 -11 13
-14 32 -9 30 8 128 62 136 76 6 8 -38 12 -60 4z"/>
<path d="M6136 2319 c-26 -17 -45 -33 -42 -36 5 -5 106 55 106 63 0 9 -18 2
-64 -27z"/>
<path d="M4096 2332 c-2 -4 -1 -14 4 -21 6 -11 10 -9 19 8 10 17 9 21 -3 21
-8 0 -17 -4 -20 -8z"/>
<path d="M5253 2243 c-45 -47 -143 -170 -143 -179 0 -13 31 20 110 117 81 100
97 130 33 62z"/>
<path d="M5629 2164 c-31 -20 -76 -38 -98 -41 -36 -5 -42 -9 -39 -27 7 -49 94
-17 173 63 48 50 38 51 -36 5z"/>
<path d="M6800 2133 c-35 -23 -80 -65 -80 -75 0 -15 98 54 114 80 10 17 -5 15
-34 -5z"/>
<path d="M4550 2044 c34 -29 34 -29 44 4 7 20 4 22 -34 22 l-42 0 32 -26z"/>
<path d="M5255 1998 c-53 -44 -55 -45 -104 -108 -23 -30 -59 -67 -79 -82 -33
-26 -34 -28 -12 -28 27 0 98 70 234 228 28 32 6 27 -39 -10z"/>
<path d="M5580 2005 c-17 -20 -98 -49 -215 -75 -130 -30 -151 -43 -55 -35 142
12 205 32 257 80 27 24 43 44 37 45 -6 0 -17 -7 -24 -15z"/>
<path d="M5823 1969 c-32 -28 -68 -56 -80 -61 -20 -10 -44 -44 -25 -36 4 1 31
12 61 23 33 12 67 35 92 62 73 79 38 88 -48 12z"/>
<path d="M3666 1905 c-9 -14 -13 -25 -8 -25 10 0 42 33 42 43 0 15 -19 5 -34
-18z"/>
<path d="M5681 1840 c-24 -11 -51 -20 -61 -20 -16 0 -86 -68 -78 -76 11 -10
269 96 262 108 -9 15 -78 8 -123 -12z"/>
<path d="M4938 1695 c-6 -14 -8 -28 -5 -32 9 -8 47 27 47 44 0 23 -30 14 -42
-12z"/>
<path d="M6180 8250 c0 -13 7 -20 20 -20 19 0 19 1 3 20 -10 11 -19 20 -20 20
-2 0 -3 -9 -3 -20z"/>
<path d="M7108 8109 c-32 -18 -41 -48 -23 -75 27 -42 95 -20 95 32 0 39 -39
62 -72 43z"/>
<path d="M4392 8160 c-12 -16 -42 -41 -67 -56 -25 -14 -43 -29 -40 -33 2 -5
-6 -19 -18 -31 -28 -31 -34 -65 -10 -56 15 6 15 4 -2 -14 -10 -11 -13 -20 -7
-20 18 0 62 49 62 70 0 21 81 78 123 87 33 7 42 23 33 58 -9 35 -46 33 -74 -5z"/>
<path d="M4220 8060 c0 -5 7 -10 16 -10 8 0 12 5 9 10 -3 6 -10 10 -16 10 -5
0 -9 -4 -9 -10z"/>
<path d="M4680 7990 c0 -5 7 -10 15 -10 8 0 15 5 15 10 0 6 -7 10 -15 10 -8 0
-15 -4 -15 -10z"/>
<path d="M4445 7979 c-4 -5 -4 -22 0 -36 l6 -26 19 21 c11 12 17 28 14 36 -7
18 -30 21 -39 5z"/>
<path d="M4007 7843 c-13 -13 -7 -21 13 -16 11 3 20 9 20 14 0 10 -24 12 -33
2z"/>
<path d="M4020 7813 c0 -5 5 -15 10 -23 8 -12 10 -11 10 8 0 12 -4 22 -10 22
-5 0 -10 -3 -10 -7z"/>
<path d="M3930 7765 c-8 -9 -8 -15 -2 -15 12 0 26 19 19 26 -2 2 -10 -2 -17
-11z"/>
<path d="M3235 7688 c-7 -16 32 -114 42 -105 7 7 -16 97 -28 111 -5 6 -11 3
-14 -6z"/>
<path d="M3085 7494 c-13 -20 -14 -29 -5 -38 15 -14 52 28 43 49 -8 22 -18 18
-38 -11z"/>
<path d="M3020 7391 c0 -5 7 -14 15 -21 12 -10 18 -10 30 0 13 11 13 15 3 21
-17 11 -48 11 -48 0z"/>
<path d="M2781 7217 c-6 -8 -8 -16 -5 -20 10 -9 34 4 34 19 0 18 -14 18 -29 1z"/>
<path d="M2673 7085 c-3 -9 -3 -19 1 -22 7 -7 36 16 36 28 0 15 -30 10 -37 -6z"/>
<path d="M2890 7078 c-6 -7 -16 -21 -23 -31 -7 -9 -43 -26 -80 -37 -83 -23
-136 -53 -206 -116 -49 -44 -161 -194 -144 -194 4 1 31 27 58 58 82 95 148
143 288 212 117 58 132 68 135 93 3 28 -10 36 -28 15z"/>
<path d="M2823 7055 c-19 -21 -16 -27 7 -15 11 6 20 15 20 20 0 14 -13 12 -27
-5z"/>
<path d="M2669 6752 c-28 -24 -20 -55 13 -50 18 2 24 11 26 36 4 36 -6 40 -39
14z"/>
<path d="M2277 6158 c-6 -21 -2 -36 7 -27 10 11 16 49 8 49 -5 0 -12 -10 -15
-22z"/>
<path d="M2246 6075 c-9 -26 -7 -32 5 -12 6 10 9 21 6 23 -2 3 -7 -2 -11 -11z"/>
<path d="M2137 6026 c-3 -8 1 -22 9 -33 15 -17 15 -17 11 5 -4 14 0 22 9 22 8
0 14 5 14 10 0 15 -37 12 -43 -4z"/>
<path d="M2226 6025 c-9 -26 -7 -32 5 -12 6 10 9 21 6 23 -2 3 -7 -2 -11 -11z"/>
<path d="M2200 5981 c0 -5 -3 -18 -6 -28 -5 -16 -4 -16 10 1 18 23 20 36 6 36
-5 0 -10 -4 -10 -9z"/>
<path d="M2330 5794 c0 -8 5 -12 10 -9 6 4 8 11 5 16 -9 14 -15 11 -15 -7z"/>
<path d="M4915 8080 c-3 -5 -1 -10 4 -10 6 0 11 5 11 10 0 6 -2 10 -4 10 -3 0
-8 -4 -11 -10z"/>
<path d="M5210 7925 c0 -18 19 -40 26 -32 4 4 0 15 -9 24 -9 10 -17 13 -17 8z"/>
<path d="M6067 7829 c7 -7 15 -10 18 -7 3 3 -2 9 -12 12 -14 6 -15 5 -6 -5z"/>
<path d="M5825 7791 c-11 -5 -27 -21 -35 -36 -13 -25 -13 -28 5 -41 37 -27 64
-28 91 -3 55 52 11 109 -61 80z"/>
<path d="M6360 7702 c0 -6 -14 -15 -31 -21 -17 -6 -28 -15 -24 -21 9 -14 42
-13 49 3 5 10 7 10 12 0 3 -7 11 -13 19 -13 18 0 40 29 29 39 -15 14 -54 23
-54 13z"/>
<path d="M6465 7693 c-16 -4 -55 -38 -55 -48 0 -1 14 -1 32 1 31 4 31 4 12
-17 l-19 -21 40 6 c22 3 44 5 49 6 5 0 3 7 -4 15 -11 13 -10 18 5 29 35 26 -2
43 -60 29z"/>
<path d="M6150 7680 c0 -5 5 -10 10 -10 6 0 10 5 10 10 0 6 -4 10 -10 10 -5 0
-10 -4 -10 -10z"/>
<path d="M5885 7660 c3 -5 8 -10 11 -10 2 0 4 5 4 10 0 6 -5 10 -11 10 -5 0
-7 -4 -4 -10z"/>
<path d="M5966 7661 c-9 -15 23 -36 36 -23 5 5 7 15 4 21 -9 13 -33 14 -40 2z"/>
<path d="M6365 7620 c-10 -11 -16 -22 -13 -25 3 -3 13 4 23 15 10 11 16 22 13
25 -3 3 -13 -4 -23 -15z"/>
<path d="M6240 7600 c0 -5 5 -10 10 -10 6 0 10 5 10 10 0 6 -4 10 -10 10 -5 0
-10 -4 -10 -10z"/>
<path d="M6550 7595 c0 -8 4 -15 10 -15 5 0 7 7 4 15 -4 8 -8 15 -10 15 -2 0
-4 -7 -4 -15z"/>
<path d="M6126 7577 c-19 -14 -13 -42 11 -51 9 -4 22 -1 29 5 19 15 18 45 -2
53 -20 8 -17 8 -38 -7z"/>
<path d="M6408 7558 c-38 -34 -61 -84 -49 -106 6 -9 11 -15 11 -12 1 3 3 13 5
23 4 23 33 67 44 67 4 0 13 11 19 25 14 31 3 32 -30 3z"/>
<path d="M6205 7540 c-3 -5 -1 -10 4 -10 6 0 11 5 11 10 0 6 -2 10 -4 10 -3 0
-8 -4 -11 -10z"/>
<path d="M6550 7519 c19 -17 104 -99 188 -182 124 -123 152 -156 149 -175 -3
-16 -1 -20 8 -12 8 7 21 0 42 -23 65 -69 207 -272 253 -361 15 -29 36 -43 47
-33 9 9 -17 65 -33 71 -8 3 -14 10 -14 16 0 26 -146 229 -267 372 -94 111
-371 359 -400 358 -4 0 8 -14 27 -31z"/>
<path d="M6470 7521 c0 -5 5 -13 10 -16 6 -3 10 -2 10 4 0 5 -4 13 -10 16 -5
3 -10 2 -10 -4z"/>
<path d="M6300 7469 c0 -5 5 -7 10 -4 6 3 10 8 10 11 0 2 -4 4 -10 4 -5 0 -10
-5 -10 -11z"/>
<path d="M6486 7390 c-23 -24 -13 -40 24 -40 37 0 47 16 24 41 -21 23 -24 23
-48 -1z"/>
<path d="M6496 7233 c-4 -9 -2 -21 4 -27 13 -13 46 17 36 33 -11 16 -33 13
-40 -6z"/>
<path d="M6250 7201 c0 -23 14 -41 31 -41 23 0 26 35 3 44 -22 9 -34 7 -34 -3z"/>
<path d="M5145 7190 c-3 -5 1 -10 10 -10 9 0 13 5 10 10 -3 6 -8 10 -10 10 -2
0 -7 -4 -10 -10z"/>
<path d="M4965 7060 c3 -5 8 -10 11 -10 2 0 4 5 4 10 0 6 -5 10 -11 10 -5 0
-7 -4 -4 -10z"/>
<path d="M4919 7033 c-6 -16 -9 -50 -6 -77 3 -38 10 -53 33 -71 16 -13 30 -22
32 -20 2 1 -7 22 -20 46 -16 30 -23 61 -23 97 0 28 -1 52 -3 52 -1 0 -7 -12
-13 -27z"/>
<path d="M5656 7051 c-4 -5 -2 -12 3 -15 5 -4 12 -2 15 3 4 5 2 12 -3 15 -5 4
-12 2 -15 -3z"/>
<path d="M6693 7003 c-7 -2 -13 -9 -13 -14 0 -14 26 -10 40 6 10 12 10 15 -1
14 -8 0 -20 -3 -26 -6z"/>
<path d="M5894 6975 c-9 -23 3 -45 25 -45 20 0 37 32 26 50 -9 15 -45 12 -51
-5z"/>
<path d="M7047 6809 c4 -13 8 -18 11 -10 2 7 -1 18 -6 23 -8 8 -9 4 -5 -13z"/>
<path d="M6925 6780 c-3 -5 -1 -10 4 -10 6 0 11 5 11 10 0 6 -2 10 -4 10 -3 0
-8 -4 -11 -10z"/>
<path d="M7072 6778 c-14 -14 -16 -38 -4 -38 12 0 32 23 32 37 0 16 -12 17
-28 1z"/>
<path d="M6333 6765 c-15 -10 -23 -26 -23 -44 0 -75 86 -101 117 -36 16 34 16
36 -4 63 -24 32 -59 39 -90 17z"/>
<path d="M7235 6709 c-4 -5 0 -18 9 -28 9 -10 16 -24 16 -33 0 -16 40 -38 70
-38 30 0 24 26 -12 51 -18 13 -39 31 -46 41 -15 20 -28 23 -37 7z"/>
<path d="M7002 6678 c-17 -17 -15 -31 3 -24 9 3 15 0 15 -10 0 -8 5 -12 10 -9
13 8 13 18 -3 38 -10 14 -15 15 -25 5z"/>
<path d="M7300 6565 c-10 -12 -10 -18 0 -31 12 -13 15 -13 28 0 15 15 10 46
-6 46 -5 0 -15 -7 -22 -15z"/>
<path d="M6306 6453 c-12 -12 -6 -33 9 -33 8 0 15 6 15 14 0 17 -14 28 -24 19z"/>
<path d="M7340 6440 c0 -5 7 -10 15 -10 8 0 15 5 15 10 0 6 -7 10 -15 10 -8 0
-15 -4 -15 -10z"/>
<path d="M7395 6300 c-4 -7 0 -19 9 -28 13 -14 16 -14 16 -2 0 25 -16 44 -25
30z"/>
<path d="M6701 6237 c-18 -23 -2 -49 28 -45 20 2 26 8 26 28 0 29 -34 40 -54
17z"/>
<path d="M7660 6151 c0 -6 5 -13 10 -16 6 -3 10 1 10 9 0 9 -4 16 -10 16 -5 0
-10 -4 -10 -9z"/>
<path d="M7490 6040 c-12 -7 -12 -13 -4 -27 14 -23 28 -22 32 1 5 24 -10 37
-28 26z"/>
<path d="M7316 5961 c-3 -5 3 -29 14 -53 19 -44 33 -117 45 -240 8 -85 25 -89
25 -5 0 59 -24 253 -36 289 -6 19 -39 25 -48 9z"/>
<path d="M5151 5676 c-6 -14 -13 -56 -16 -93 l-5 -68 20 89 c20 88 20 123 1
72z"/>
<path d="M7010 5690 c0 -5 5 -10 10 -10 6 0 10 5 10 10 0 6 -4 10 -10 10 -5 0
-10 -4 -10 -10z"/>
<path d="M4925 4720 c-3 -5 -1 -10 4 -10 6 0 11 5 11 10 0 6 -2 10 -4 10 -3 0
-8 -4 -11 -10z"/>
<path d="M4427 7744 c-14 -14 -7 -35 11 -32 9 2 17 10 17 17 0 16 -18 25 -28
15z"/>
<path d="M4254 7515 c-8 -20 4 -35 27 -35 14 0 19 7 19 25 0 18 -5 25 -20 25
-11 0 -23 -7 -26 -15z"/>
<path d="M3550 7363 c0 -6 12 -25 26 -42 14 -17 23 -35 20 -40 -4 -5 -2 -12 3
-15 5 -3 12 2 15 11 4 10 -4 28 -21 47 -15 17 -31 35 -35 41 -5 5 -8 5 -8 -2z"/>
<path d="M3210 7113 c0 -4 5 -15 10 -23 8 -13 10 -13 10 2 0 9 -4 20 -10 23
-5 3 -10 3 -10 -2z"/>
<path d="M4137 7114 c-14 -14 -7 -35 11 -32 9 2 17 10 17 17 0 16 -18 25 -28
15z"/>
<path d="M3332 7093 c2 -10 14 -20 28 -22 25 -3 25 -3 6 18 -23 26 -39 27 -34
4z"/>
<path d="M4363 7103 c-18 -7 -16 -30 3 -37 24 -9 47 13 33 30 -12 15 -16 16
-36 7z"/>
<path d="M3190 7038 c0 -8 7 -21 15 -28 19 -16 19 -1 0 24 -12 16 -15 17 -15
4z"/>
<path d="M4545 6990 c-8 -13 13 -40 30 -40 15 0 24 19 18 38 -6 15 -39 16 -48
2z"/>
<path d="M2913 6718 c-2 -5 2 -8 9 -9 7 0 23 -2 35 -5 15 -2 21 0 18 9 -6 13
-54 17 -62 5z"/>
<path d="M3220 6483 c-22 -9 -30 -24 -30 -59 0 -39 27 -64 68 -64 33 0 62 29
62 63 0 41 -58 76 -100 60z"/>
<path d="M2860 6415 c-18 -21 -5 -45 25 -45 18 0 25 5 25 20 0 27 -34 44 -50
25z"/>
<path d="M2731 6264 c-28 -36 -17 -45 15 -12 16 15 22 28 16 32 -6 3 -20 -6
-31 -20z"/>
<path d="M2660 6013 c1 -19 19 -35 34 -30 26 10 19 37 -9 37 -14 0 -25 -3 -25
-7z"/>
<path d="M3036 5951 c-3 -5 1 -11 9 -15 9 -3 15 0 15 9 0 16 -16 20 -24 6z"/>
<path d="M3820 5825 c0 -8 5 -15 10 -15 6 0 10 7 10 15 0 8 -4 15 -10 15 -5 0
-10 -7 -10 -15z"/>
<path d="M2680 5690 c0 -5 5 -10 10 -10 6 0 10 5 10 10 0 6 -4 10 -10 10 -5 0
-10 -4 -10 -10z"/>
<path d="M10924 6502 c-53 -19 -134 -90 -134 -118 0 -8 -4 -14 -10 -14 -12 0
-30 -66 -30 -115 0 -49 18 -115 30 -115 6 0 10 -7 10 -15 0 -8 20 -35 45 -59
48 -49 116 -76 188 -76 58 0 145 28 157 51 6 10 17 19 25 19 19 0 51 47 67 98
7 23 16 42 20 42 5 0 8 25 8 55 0 30 -4 55 -8 55 -4 0 -14 20 -21 45 -12 41
-28 62 -88 117 -26 24 -108 48 -163 48 -25 -1 -68 -9 -96 -18z"/>
<path d="M15280 6509 c-59 -26 -98 -75 -114 -141 l-6 -28 226 0 226 0 -6 23
c-3 12 -6 27 -6 34 0 6 -6 18 -12 25 -7 7 -25 29 -40 49 -45 61 -176 79 -268
38z"/>
<path d="M17512 6500 c-49 -22 -87 -60 -109 -110 -8 -19 -20 -38 -27 -42 -7
-5 -11 -40 -11 -93 0 -53 4 -88 11 -93 7 -4 19 -23 27 -42 37 -82 113 -129
208 -130 81 0 140 21 188 67 51 51 71 105 71 198 0 93 -20 147 -71 198 -69 67
-197 88 -287 47z"/>
<path d="M18397 6498 c-65 -24 -76 -149 -17 -208 18 -18 32 -20 180 -20 l160
0 0 120 0 120 -147 -1 c-82 0 -160 -5 -176 -11z"/>
<path d="M1678 5123 c7 -3 16 -2 19 1 4 3 -2 6 -13 5 -11 0 -14 -3 -6 -6z"/>
<path d="M1630 5050 c0 -5 5 -10 10 -10 6 0 10 5 10 10 0 6 -4 10 -10 10 -5 0
-10 -4 -10 -10z"/>
<path d="M13216 4693 c-22 -9 -54 -32 -70 -52 -17 -19 -36 -39 -41 -45 -20
-21 -36 -69 -42 -126 -7 -69 14 -146 52 -188 13 -15 32 -37 42 -48 42 -50 163
-68 257 -40 57 17 121 80 142 138 18 52 18 174 -1 227 -19 54 -88 120 -144
137 -59 18 -147 17 -195 -3z"/>
<path d="M16753 4688 c-12 -6 -27 -23 -34 -39 -6 -16 -15 -29 -20 -29 -5 0 -9
-18 -9 -40 0 -22 5 -40 10 -40 6 0 10 -7 10 -15 0 -9 11 -27 25 -40 24 -24 28
-25 185 -25 l160 0 0 120 0 120 -152 -1 c-85 0 -163 -5 -175 -11z"/>
<path d="M1622 3994 c-29 -20 -29 -59 2 -79 23 -16 54 -11 68 9 15 22 8 65
-11 76 -26 13 -33 13 -59 -6z"/>
</g>
</svg>
